<svg width="38" height="38" viewBox="0 0 38 38" fill="none" xmlns="http://www.w3.org/2000/svg">
<path d="M31.6665 6.33331H6.33317C4.5915 6.33331 3.1665 7.75831 3.1665 9.49998V28.5C3.1665 30.2416 4.5915 31.6666 6.33317 31.6666H31.6665C33.4082 31.6666 34.8332 30.2416 34.8332 28.5V9.49998C34.8332 7.75831 33.4082 6.33331 31.6665 6.33331ZM31.0332 13.0625L20.6782 19.5383C19.649 20.1875 18.3507 20.1875 17.3215 19.5383L6.9665 13.0625C6.80774 12.9734 6.66871 12.8529 6.55783 12.7085C6.44695 12.5641 6.36652 12.3987 6.32141 12.2223C6.27631 12.0459 6.26747 11.8622 6.29542 11.6823C6.32337 11.5024 6.38754 11.33 6.48403 11.1756C6.58053 11.0212 6.70735 10.888 6.85682 10.7841C7.00629 10.6801 7.1753 10.6075 7.35362 10.5708C7.53194 10.534 7.71587 10.5338 7.89427 10.5702C8.07266 10.6066 8.24182 10.6788 8.3915 10.7825L18.9998 17.4166L29.6082 10.7825C29.7579 10.6788 29.927 10.6066 30.1054 10.5702C30.2838 10.5338 30.4677 10.534 30.6461 10.5708C30.8244 10.6075 30.9934 10.6801 31.1429 10.7841C31.2923 10.888 31.4191 11.0212 31.5156 11.1756C31.6121 11.33 31.6763 11.5024 31.7043 11.6823C31.7322 11.8622 31.7234 12.0459 31.6783 12.2223C31.6332 12.3987 31.5527 12.5641 31.4418 12.7085C31.331 12.8529 31.1919 12.9734 31.0332 13.0625Z" fill="#004368"/>
</svg>
