<svg width="111" height="95" viewBox="0 0 111 95" fill="none" xmlns="http://www.w3.org/2000/svg">
<path d="M4.00629 84.3926H3.30206L3.95718 79.0458H4.6614L4.00629 84.3926Z" fill="#383838"/>
<path d="M5.20453 84.3926L5.65731 80.6095H5.99027C6.13956 80.6095 6.21519 80.6839 6.21519 80.8336L6.15921 81.5646C6.36154 81.2309 6.5894 80.9804 6.8428 80.8111C7.09621 80.6418 7.35845 80.5576 7.63149 80.5576C7.91338 80.5576 8.13241 80.6516 8.28857 80.8414C8.44474 81.0303 8.52233 81.3062 8.52233 81.6693C8.52233 81.7192 8.52135 81.7701 8.5184 81.8229C8.51644 81.8748 8.51054 81.9296 8.50367 81.9873L8.21884 84.3935H7.55194L7.83677 81.9873C7.84168 81.9374 7.84659 81.8894 7.84954 81.8435C7.85347 81.7975 7.85543 81.7534 7.85543 81.7114C7.85543 81.5078 7.81713 81.3561 7.7415 81.2583C7.66489 81.1604 7.54604 81.1105 7.38398 81.1105C7.26416 81.1105 7.14237 81.1428 7.01861 81.2074C6.89486 81.272 6.77602 81.364 6.6611 81.4814C6.54619 81.5988 6.43913 81.7427 6.34091 81.91C6.24269 82.0783 6.15822 82.2652 6.08849 82.4717L5.87143 84.3935H5.20453V84.3926Z" fill="#383838"/>
<path d="M11.5858 81.2172C11.5661 81.2465 11.5455 81.269 11.5259 81.2827C11.5062 81.2964 11.4807 81.3033 11.4512 81.3033C11.4159 81.3033 11.3785 81.2896 11.3373 81.2622C11.296 81.2348 11.2459 81.2045 11.187 81.1712C11.1281 81.1379 11.0564 81.1066 10.9719 81.0782C10.8874 81.0499 10.7843 81.0352 10.6645 81.0352C10.5525 81.0352 10.4494 81.0508 10.3571 81.0821C10.2647 81.1135 10.1852 81.1565 10.1174 81.2113C10.0496 81.2661 9.99857 81.3297 9.96223 81.4031C9.92589 81.4765 9.90821 81.5548 9.90821 81.636C9.90821 81.7534 9.94652 81.8464 10.0241 81.9159C10.1017 81.9853 10.1989 82.046 10.3158 82.0969C10.4327 82.1478 10.5594 82.1967 10.6959 82.2447C10.8315 82.2916 10.9582 82.3513 11.076 82.4237C11.1929 82.4961 11.2911 82.5881 11.3677 82.6997C11.4453 82.8112 11.4836 82.957 11.4836 83.1361C11.4836 83.3103 11.4492 83.4766 11.3805 83.6361C11.3117 83.7956 11.2135 83.9356 11.0849 84.0559C10.9562 84.1763 10.802 84.2732 10.6203 84.3456C10.4396 84.418 10.2363 84.4532 10.0113 84.4532C9.76874 84.4532 9.55463 84.4102 9.369 84.3241C9.18336 84.238 9.03112 84.1284 8.91425 83.9943L9.07925 83.7409C9.0989 83.7086 9.12247 83.6841 9.14997 83.6665C9.17747 83.6489 9.21283 83.6401 9.25506 83.6401C9.29533 83.6401 9.33462 83.6577 9.37489 83.6919C9.41516 83.7272 9.46427 83.7663 9.52418 83.8094C9.58409 83.8534 9.65972 83.8925 9.75106 83.9268C9.84241 83.962 9.95732 83.9796 10.0978 83.9796C10.2205 83.9796 10.3305 83.961 10.4288 83.9238C10.527 83.8867 10.6115 83.8367 10.6792 83.7751C10.748 83.7125 10.8 83.6401 10.8364 83.5569C10.8727 83.4737 10.8904 83.3847 10.8904 83.2897C10.8904 83.1625 10.8521 83.0617 10.7745 82.9874C10.6969 82.913 10.5997 82.8504 10.4828 82.8005C10.3659 82.7506 10.2392 82.7046 10.1046 82.6605C9.97009 82.6175 9.84339 82.5607 9.72651 82.4932C9.60963 82.4247 9.51141 82.3357 9.4348 82.2261C9.35721 82.1165 9.3189 81.9707 9.3189 81.7896C9.3189 81.6301 9.35033 81.4765 9.41417 81.3287C9.47802 81.181 9.56936 81.0499 9.68918 80.9354C9.80901 80.8209 9.95437 80.7299 10.1253 80.6614C10.2962 80.5929 10.4887 80.5586 10.7038 80.5586C10.9307 80.5586 11.131 80.5968 11.3049 80.6721C11.4787 80.7475 11.628 80.8502 11.7527 80.9794L11.5858 81.2172Z" fill="#383838"/>
<path d="M12.3863 83.6802C12.3863 83.6655 12.3872 83.646 12.3882 83.6225C12.3892 83.599 12.3922 83.5647 12.3961 83.5197C12.4 83.4747 12.4059 83.417 12.4128 83.3446C12.4197 83.2722 12.4314 83.1782 12.4462 83.0608L12.6819 81.1693H12.2586C12.2262 81.1693 12.1996 81.1595 12.178 81.1409C12.1564 81.1223 12.1466 81.0929 12.1466 81.0538C12.1466 81.046 12.1476 81.0313 12.1505 81.0088C12.1525 80.9863 12.1564 80.9608 12.1604 80.9325C12.1643 80.9041 12.1682 80.8747 12.1712 80.8444C12.1751 80.815 12.178 80.7857 12.181 80.7583L12.7654 80.68L13.0463 79.5116C13.0561 79.4744 13.0748 79.4441 13.1023 79.4206C13.1298 79.3971 13.1632 79.3854 13.2034 79.3854H13.5551L13.39 80.6878H14.386L14.33 81.1693H13.3301L13.1013 83.0275C13.0885 83.1293 13.0797 83.2115 13.0728 83.2741C13.0669 83.3367 13.062 83.3857 13.0581 83.4229C13.0541 83.46 13.0522 83.4865 13.0502 83.5011C13.0492 83.5158 13.0482 83.5276 13.0482 83.5344C13.0482 83.6616 13.0777 83.7556 13.1366 83.8162C13.1956 83.8779 13.2761 83.9072 13.3783 83.9072C13.4431 83.9072 13.5 83.8974 13.5501 83.8788C13.6002 83.8603 13.6434 83.8397 13.6798 83.8172C13.7161 83.7947 13.7466 83.7741 13.7711 83.7556C13.7957 83.737 13.8183 83.7272 13.8389 83.7272C13.8595 83.7272 13.8743 83.7321 13.886 83.7419C13.8968 83.7516 13.9096 83.7683 13.9214 83.7898L14.0599 84.1069C13.9401 84.2135 13.8016 84.2977 13.6464 84.3583C13.4912 84.419 13.3341 84.4493 13.1769 84.4493C12.9343 84.4493 12.7438 84.3838 12.6043 84.2517C12.4638 84.1225 12.3921 83.9317 12.3863 83.6802Z" fill="#383838"/>
<path d="M15.8248 80.6134L15.3681 84.3926H14.713L15.1697 80.6134H15.8248ZM16.0753 79.4264C16.0753 79.491 16.0625 79.5517 16.036 79.6075C16.0095 79.6633 15.9751 79.7132 15.9309 79.7562C15.8867 79.8002 15.8376 79.8345 15.7826 79.859C15.7276 79.8844 15.6706 79.8961 15.6107 79.8961C15.5528 79.8961 15.4968 79.8844 15.4418 79.859C15.3868 79.8345 15.3387 79.8002 15.2974 79.7562C15.2562 79.7132 15.2228 79.6633 15.1982 79.6075C15.1737 79.5517 15.1609 79.491 15.1609 79.4264C15.1609 79.3619 15.1737 79.3012 15.1982 79.2435C15.2228 79.1867 15.2571 79.1358 15.2994 79.0928C15.3416 79.0497 15.3907 79.0145 15.4457 78.9881C15.5007 78.9616 15.5567 78.9489 15.6147 78.9489C15.6746 78.9489 15.7315 78.9616 15.7865 78.9861C15.8415 79.0115 15.8906 79.0448 15.9348 79.0889C15.9781 79.1329 16.0124 79.1838 16.038 79.2415C16.0625 79.3002 16.0753 79.3619 16.0753 79.4264Z" fill="#383838"/>
<path d="M16.7756 83.6802C16.7756 83.6655 16.7766 83.646 16.7776 83.6225C16.7785 83.599 16.7815 83.5647 16.7854 83.5197C16.7894 83.4747 16.7952 83.417 16.8021 83.3446C16.809 83.2722 16.8208 83.1782 16.8355 83.0608L17.0712 81.1693H16.6479C16.6155 81.1693 16.589 81.1595 16.5674 81.1409C16.5458 81.1223 16.5359 81.0929 16.5359 81.0538C16.5359 81.046 16.5369 81.0313 16.5399 81.0088C16.5418 80.9863 16.5458 80.9608 16.5497 80.9325C16.5536 80.9041 16.5576 80.8747 16.5605 80.8444C16.5644 80.815 16.5674 80.7857 16.5703 80.7583L17.1547 80.68L17.4356 79.5116C17.4454 79.4744 17.4641 79.4441 17.4916 79.4206C17.5191 79.3971 17.5525 79.3854 17.5928 79.3854H17.9444L17.7794 80.6878H18.7753L18.7193 81.1693H17.7195L17.4906 83.0275C17.4779 83.1293 17.469 83.2115 17.4621 83.2741C17.4563 83.3367 17.4513 83.3857 17.4474 83.4229C17.4435 83.46 17.4415 83.4865 17.4396 83.5011C17.4386 83.5158 17.4376 83.5276 17.4376 83.5344C17.4376 83.6616 17.4671 83.7556 17.526 83.8162C17.5849 83.8779 17.6655 83.9072 17.7676 83.9072C17.8324 83.9072 17.8894 83.8974 17.9395 83.8788C17.9896 83.8603 18.0328 83.8397 18.0691 83.8172C18.1055 83.7947 18.1359 83.7741 18.1605 83.7556C18.185 83.737 18.2076 83.7272 18.2282 83.7272C18.2489 83.7272 18.2636 83.7321 18.2754 83.7419C18.2862 83.7516 18.299 83.7683 18.3107 83.7898L18.4492 84.1069C18.3294 84.2135 18.1909 84.2977 18.0357 84.3583C17.8806 84.419 17.7234 84.4493 17.5663 84.4493C17.3237 84.4493 17.1331 84.3838 16.9936 84.2517C16.8532 84.1225 16.7805 83.9317 16.7756 83.6802Z" fill="#383838"/>
<path d="M20.0708 80.6134L19.786 83.0158C19.7811 83.0657 19.7762 83.1126 19.7732 83.1577C19.7693 83.2027 19.7673 83.2457 19.7673 83.2878C19.7673 83.4913 19.8056 83.644 19.8813 83.7428C19.9569 83.8426 20.0777 83.8916 20.2427 83.8916C20.3576 83.8916 20.4755 83.8603 20.5963 83.7986C20.7171 83.737 20.835 83.6479 20.9479 83.5334C21.0619 83.4189 21.1669 83.281 21.2642 83.1195C21.3614 82.958 21.4459 82.778 21.5186 82.5784L21.7543 80.6125H22.4173L21.9605 84.3916H21.6305C21.5529 84.3916 21.493 84.374 21.4508 84.3397C21.4086 84.3045 21.387 84.2517 21.387 84.1793C21.387 84.1773 21.3879 84.1548 21.3909 84.1127C21.3928 84.0706 21.3968 84.0246 21.4007 83.9747C21.4046 83.9248 21.4086 83.8788 21.4115 83.8368C21.4154 83.7947 21.4174 83.7722 21.4174 83.7692L21.4439 83.4669C21.2416 83.7878 21.0157 84.0305 20.7662 84.1959C20.5167 84.3613 20.2594 84.4444 19.9952 84.4444C19.7133 84.4444 19.4943 84.3485 19.3381 84.1567C19.182 83.965 19.1044 83.69 19.1044 83.3328C19.1044 83.2829 19.1054 83.232 19.1083 83.1792C19.1103 83.1273 19.1162 83.0725 19.123 83.0148L19.4079 80.6125H20.0708V80.6134Z" fill="#383838"/>
<path d="M23.2727 83.6802C23.2727 83.6655 23.2737 83.646 23.2747 83.6225C23.2757 83.599 23.2786 83.5647 23.2826 83.5197C23.2865 83.4747 23.2924 83.417 23.2993 83.3446C23.3071 83.2722 23.3179 83.1782 23.3326 83.0608L23.5684 81.1693H23.1451C23.1126 81.1693 23.0861 81.1595 23.0645 81.1409C23.0429 81.1223 23.0331 81.0929 23.0331 81.0538C23.0331 81.046 23.0341 81.0313 23.037 81.0088C23.039 80.9863 23.0429 80.9608 23.0468 80.9325C23.0508 80.9041 23.0547 80.8747 23.0576 80.8444C23.0616 80.815 23.0645 80.7857 23.0675 80.7583L23.6519 80.68L23.9328 79.5116C23.9426 79.4744 23.9612 79.4441 23.9887 79.4206C24.0162 79.3971 24.0496 79.3854 24.0899 79.3854H24.4415L24.2765 80.6878H25.2725L25.2165 81.1693H24.2166L23.9878 83.0275C23.975 83.1293 23.9662 83.2115 23.9593 83.2741C23.9534 83.3367 23.9485 83.3857 23.9445 83.4229C23.9406 83.46 23.9387 83.4865 23.9367 83.5011C23.9357 83.5158 23.9347 83.5276 23.9347 83.5344C23.9347 83.6616 23.9642 83.7556 24.0231 83.8162C24.0821 83.8779 24.1626 83.9072 24.2647 83.9072C24.3296 83.9072 24.3865 83.8974 24.4366 83.8788C24.4867 83.8603 24.5299 83.8397 24.5663 83.8172C24.6026 83.7947 24.6331 83.7741 24.6576 83.7556C24.6822 83.737 24.7048 83.7272 24.7254 83.7272C24.746 83.7272 24.7607 83.7321 24.7725 83.7419C24.7833 83.7516 24.7961 83.7683 24.8079 83.7898L24.9464 84.1069C24.8265 84.2135 24.6881 84.2977 24.5329 84.3583C24.3777 84.419 24.2205 84.4493 24.0634 84.4493C23.8208 84.4493 23.6302 84.3838 23.4908 84.2517C23.3503 84.1225 23.2776 83.9317 23.2727 83.6802Z" fill="#383838"/>
<path d="M26.8606 84.4444C26.6534 84.4444 26.4638 84.4092 26.291 84.3388C26.1191 84.2673 25.9698 84.1656 25.845 84.0305C25.7203 83.8965 25.6231 83.7321 25.5533 83.5383C25.4836 83.3446 25.4482 83.1224 25.4482 82.8739C25.4482 82.5558 25.4983 82.2554 25.5985 81.9746C25.6987 81.6938 25.8352 81.4472 26.0081 81.2358C26.1819 81.0244 26.3862 80.8581 26.6219 80.7358C26.8577 80.6144 27.113 80.5528 27.388 80.5528C27.5953 80.5528 27.7848 80.588 27.9577 80.6584C28.1296 80.7299 28.2789 80.8317 28.4036 80.9667C28.5284 81.1008 28.6256 81.2661 28.6953 81.4609C28.7651 81.6556 28.8004 81.8767 28.8004 82.1233C28.8004 82.4394 28.7503 82.7379 28.6511 83.0187C28.5509 83.2995 28.4144 83.5461 28.2406 83.7575C28.0667 83.9689 27.8615 84.1362 27.6247 84.2595C27.3871 84.3838 27.1327 84.4444 26.8606 84.4444ZM26.9205 83.9258C27.1032 83.9258 27.2692 83.8759 27.4185 83.7771C27.5688 83.6773 27.6955 83.5452 27.8006 83.3798C27.9057 83.2144 27.9862 83.0236 28.0441 82.8073C28.1011 82.5911 28.1306 82.365 28.1306 82.1282C28.1306 81.7799 28.0618 81.5176 27.9243 81.3415C27.7868 81.1653 27.5884 81.0763 27.3291 81.0763C27.1445 81.0763 26.9775 81.1252 26.8292 81.224C26.6809 81.3219 26.5542 81.454 26.4491 81.6194C26.344 81.7848 26.2635 81.9756 26.2055 82.1918C26.1485 82.4081 26.1191 82.6341 26.1191 82.8709C26.1191 83.2193 26.1868 83.4825 26.3234 83.6596C26.4589 83.8377 26.6583 83.9258 26.9205 83.9258Z" fill="#383838"/>
<path d="M33.2831 84.3926C33.1957 84.3926 33.1367 84.3701 33.1053 84.325C33.0739 84.28 33.0582 84.2252 33.0582 84.1607L33.1289 83.3739C33.0336 83.5354 32.9305 83.6821 32.8185 83.8143C32.7066 83.9464 32.5887 84.0589 32.4649 84.1518C32.3412 84.2448 32.2125 84.3172 32.0789 84.3681C31.9454 84.419 31.8098 84.4444 31.6723 84.4444C31.3482 84.4444 31.0968 84.327 30.918 84.0922C30.7392 83.8573 30.6499 83.5158 30.6499 83.0676C30.6499 82.8641 30.6715 82.6596 30.7137 82.456C30.7559 82.2525 30.8168 82.0568 30.8954 81.8699C30.974 81.683 31.0693 81.5098 31.1802 81.3493C31.2912 81.1888 31.415 81.0499 31.5505 80.9334C31.6871 80.816 31.8344 80.724 31.9945 80.6575C32.1546 80.5909 32.3215 80.5567 32.4964 80.5567C32.681 80.5567 32.85 80.5929 33.0042 80.6643C33.1574 80.7367 33.288 80.8395 33.3951 80.9745L33.6534 78.8961H34.3085L33.6269 84.3916H33.2831V84.3926ZM31.9238 83.9111C32.0436 83.9111 32.1644 83.8739 32.2852 83.8005C32.406 83.7272 32.5239 83.6254 32.6368 83.4943C32.7498 83.3631 32.8568 83.2085 32.955 83.0275C33.0533 82.8475 33.1397 82.6498 33.2114 82.4365L33.3351 81.4364C33.2399 81.3043 33.1269 81.2113 32.9943 81.1565C32.8617 81.1017 32.7282 81.0743 32.5936 81.0743C32.3962 81.0743 32.2184 81.133 32.0603 81.2495C31.9021 81.3669 31.7666 81.5176 31.6556 81.7026C31.5446 81.8875 31.4592 82.095 31.3993 82.3239C31.3394 82.5529 31.3099 82.778 31.3099 82.9991C31.3099 83.2946 31.3639 83.5207 31.471 83.6763C31.578 83.8338 31.7283 83.9111 31.9238 83.9111Z" fill="#383838"/>
<path d="M37.6901 81.4227C37.6901 81.5871 37.6567 81.7378 37.589 81.8758C37.5212 82.0137 37.3984 82.138 37.2187 82.2486C37.0389 82.3592 36.7914 82.456 36.4771 82.5373C36.1628 82.6195 35.7582 82.685 35.2641 82.7349C35.2612 82.7623 35.2602 82.7888 35.2602 82.8152C35.2602 82.8416 35.2602 82.868 35.2602 82.8954C35.2602 83.2291 35.3329 83.4835 35.4792 83.6587C35.6256 83.8338 35.8456 83.9219 36.1402 83.9219C36.2601 83.9219 36.3671 83.9092 36.4604 83.8847C36.5537 83.8603 36.6372 83.8289 36.7109 83.7937C36.7845 83.7575 36.8494 83.7184 36.9054 83.6743C36.9613 83.6313 37.0134 83.5912 37.0605 83.555C37.1077 83.5187 37.1519 83.4884 37.1912 83.4639C37.2314 83.4385 37.2707 83.4268 37.311 83.4268C37.3562 83.4268 37.3974 83.4483 37.4348 83.4904L37.5998 83.6959C37.4721 83.828 37.3483 83.9405 37.2275 84.0335C37.1067 84.1264 36.982 84.2047 36.8553 84.2664C36.7276 84.329 36.595 84.374 36.4565 84.4024C36.318 84.4308 36.1687 84.4454 36.0086 84.4454C35.7916 84.4454 35.5971 84.4092 35.4242 84.3378C35.2523 84.2654 35.106 84.1626 34.9862 84.0295C34.8664 83.8965 34.774 83.735 34.7092 83.5461C34.6444 83.3573 34.612 83.1459 34.612 82.912C34.612 82.7183 34.6326 82.5245 34.6738 82.3318C34.7151 82.139 34.775 81.955 34.8536 81.7808C34.9322 81.6067 35.0284 81.4452 35.1423 81.2955C35.2563 81.1468 35.3859 81.0176 35.5323 80.909C35.6786 80.8013 35.8397 80.7152 36.0155 80.6536C36.1913 80.5919 36.3809 80.5606 36.5832 80.5606C36.7757 80.5606 36.9417 80.588 37.0812 80.6428C37.2206 80.6976 37.3356 80.7671 37.4259 80.8522C37.5153 80.9364 37.5831 81.0303 37.6263 81.1321C37.6685 81.2338 37.6901 81.3307 37.6901 81.4227ZM36.5449 81.0381C36.3877 81.0381 36.2424 81.0704 36.1108 81.135C35.9782 81.1996 35.8613 81.2886 35.7592 81.4022C35.657 81.5157 35.5696 81.6487 35.4969 81.8014C35.4242 81.955 35.3682 82.1194 35.329 82.2956C35.713 82.2486 36.0214 82.1938 36.2542 82.1331C36.486 82.0725 36.6647 82.0059 36.7895 81.9355C36.9142 81.864 36.9967 81.7877 37.037 81.7055C37.0772 81.6233 37.0969 81.5372 37.0969 81.4481C37.0969 81.4031 37.0871 81.3571 37.0664 81.3082C37.0468 81.2593 37.0144 81.2153 36.9712 81.1761C36.927 81.136 36.871 81.1037 36.8003 81.0773C36.7295 81.0518 36.6441 81.0381 36.5449 81.0381Z" fill="#383838"/>
<path d="M43.2964 79.6173H40.948L40.7123 81.5205H42.7238L42.6452 82.0881H40.6455L40.3607 84.3935H39.6525L40.3155 79.0468H43.3671L43.2964 79.6173Z" fill="#383838"/>
<path d="M44.5477 84.4444C44.3404 84.4444 44.1509 84.4092 43.978 84.3388C43.8061 84.2673 43.6569 84.1656 43.5321 84.0305C43.4074 83.8965 43.3101 83.7321 43.2404 83.5383C43.1707 83.3446 43.1353 83.1224 43.1353 82.8739C43.1353 82.5558 43.1854 82.2554 43.2856 81.9746C43.3858 81.6938 43.5223 81.4472 43.6952 81.2358C43.869 81.0244 44.0733 80.8581 44.309 80.7358C44.5447 80.6144 44.8001 80.5528 45.0751 80.5528C45.2824 80.5528 45.4719 80.588 45.6448 80.6584C45.8167 80.7299 45.966 80.8317 46.0907 80.9667C46.2154 81.1008 46.3127 81.2661 46.3824 81.4609C46.4521 81.6556 46.4875 81.8767 46.4875 82.1233C46.4875 82.4394 46.4374 82.7379 46.3382 83.0187C46.238 83.2995 46.1015 83.5461 45.9276 83.7575C45.7538 83.9689 45.5485 84.1362 45.3118 84.2595C45.0741 84.3838 44.8198 84.4444 44.5477 84.4444ZM44.6076 83.9258C44.7903 83.9258 44.9563 83.8759 45.1056 83.7771C45.2558 83.6773 45.3825 83.5452 45.4876 83.3798C45.5927 83.2144 45.6733 83.0236 45.7312 82.8073C45.7882 82.5911 45.8176 82.365 45.8176 82.1282C45.8176 81.7799 45.7489 81.5176 45.6114 81.3415C45.4739 81.1653 45.2755 81.0763 45.0162 81.0763C44.8315 81.0763 44.6646 81.1252 44.5163 81.224C44.3679 81.3219 44.2412 81.454 44.1362 81.6194C44.0311 81.7848 43.9505 81.9756 43.8926 82.1918C43.8356 82.4081 43.8061 82.6341 43.8061 82.8709C43.8061 83.2193 43.8739 83.4825 44.0104 83.6596C44.146 83.8377 44.3454 83.9258 44.6076 83.9258Z" fill="#383838"/>
<path d="M46.959 84.3926L47.4157 80.6095H47.7486C47.8184 80.6095 47.8734 80.6262 47.9136 80.6575C47.9539 80.6898 47.9735 80.7397 47.9735 80.8072C47.9735 80.817 47.9726 80.8317 47.9716 80.8502C47.9706 80.8688 47.9686 80.8884 47.9677 80.908C47.9667 80.9275 47.9647 80.9452 47.9637 80.9608C47.9627 80.9755 47.9618 80.9843 47.9618 80.9872L47.9097 81.6732C48.0718 81.3248 48.2535 81.0567 48.4548 80.8679C48.6562 80.679 48.8673 80.5841 49.0893 80.5841C49.1944 80.5841 49.2985 80.6066 49.4036 80.6506L49.2838 81.2886C49.1659 81.2417 49.053 81.2182 48.943 81.2182C48.7004 81.2182 48.4853 81.3356 48.2947 81.5705C48.1052 81.8053 47.946 82.1615 47.8193 82.639L47.6092 84.3926H46.959Z" fill="#383838"/>
<path d="M49.5883 84.3926L50.045 80.6095H50.3779C50.5272 80.6095 50.6028 80.6839 50.6028 80.8336L50.5508 81.5088C50.7384 81.1957 50.9427 80.9588 51.1647 80.7984C51.3866 80.6379 51.6214 80.5576 51.8689 80.5576C52.1262 80.5576 52.3158 80.6447 52.4385 80.8209C52.5603 80.996 52.6222 81.2465 52.6222 81.5724C52.8118 81.227 53.0249 80.9716 53.2606 80.8052C53.4963 80.6389 53.7439 80.5567 54.0041 80.5567C54.2841 80.5567 54.4933 80.6477 54.6317 80.8287C54.7702 81.0097 54.84 81.272 54.84 81.6125C54.84 81.6693 54.837 81.7299 54.8321 81.7916C54.8272 81.8542 54.8213 81.9188 54.8135 81.9853L54.5286 84.3916H53.8735L54.1583 81.9853C54.1731 81.864 54.1809 81.7524 54.1809 81.6536C54.1809 81.4667 54.1495 81.3297 54.0876 81.2417C54.0248 81.1536 53.9206 81.1095 53.7733 81.1095C53.6663 81.1095 53.5582 81.136 53.4512 81.1898C53.3441 81.2436 53.24 81.3219 53.1408 81.4246C53.0406 81.5274 52.9483 81.6556 52.8619 81.8092C52.7754 81.9619 52.6988 82.138 52.631 82.3366L52.3875 84.3926H51.7284L52.0172 81.9863C52.025 81.9188 52.0309 81.8562 52.0358 81.7955C52.0408 81.7358 52.0437 81.68 52.0437 81.6282C52.0437 81.452 52.0142 81.3209 51.9553 81.2368C51.8964 81.1526 51.7933 81.1095 51.6459 81.1095C51.5261 81.1095 51.4102 81.1389 51.2992 81.1996C51.1882 81.2593 51.0831 81.3454 50.9849 81.4589C50.8867 81.5724 50.7944 81.7104 50.7099 81.8728C50.6254 82.0362 50.5478 82.2192 50.4781 82.4227L50.2424 84.3926H49.5883Z" fill="#383838"/>
<path d="M58.2462 84.3926H57.9014C57.814 84.3926 57.7551 84.3701 57.7236 84.3251C57.6922 84.28 57.6765 84.2253 57.6765 84.1607L57.7433 83.4033C57.6529 83.5618 57.5567 83.7047 57.4535 83.8329C57.3504 83.961 57.2404 84.0706 57.1235 84.1607C57.0076 84.2507 56.8858 84.3202 56.7582 84.3701C56.6305 84.419 56.4979 84.4444 56.3614 84.4444C56.2121 84.4444 56.0755 84.4151 55.9528 84.3574C55.83 84.2986 55.7259 84.2125 55.6404 84.1C55.554 83.9865 55.4872 83.8475 55.4401 83.6822C55.3929 83.5168 55.3694 83.327 55.3694 83.1136C55.3694 82.8895 55.3978 82.6713 55.4538 82.459C55.5098 82.2466 55.5894 82.0451 55.6935 81.8562C55.7966 81.6673 55.9213 81.4941 56.0657 81.3356C56.2101 81.1781 56.3722 81.0411 56.5509 80.9256C56.7297 80.8101 56.9212 80.7201 57.1255 80.6565C57.3298 80.5929 57.5449 80.5616 57.7698 80.5616C57.9319 80.5616 58.09 80.5743 58.2432 80.6007C58.3964 80.6271 58.5487 80.6731 58.698 80.7387L58.2462 84.3926ZM56.6128 83.8925C56.7346 83.8925 56.8544 83.8554 56.9723 83.781C57.0901 83.7066 57.2011 83.6029 57.3052 83.4708C57.4103 83.3387 57.5076 83.1811 57.5989 82.9991C57.6902 82.8171 57.7708 82.6165 57.8405 82.3983L58.0016 81.1203C57.9466 81.0763 57.8926 81.0538 57.8386 81.0538C57.7845 81.0538 57.7315 81.0538 57.6794 81.0538C57.5292 81.0538 57.3848 81.0783 57.2453 81.1262C57.1058 81.1741 56.9742 81.2417 56.8524 81.3288C56.7307 81.4159 56.6187 81.5196 56.5195 81.6399C56.4193 81.7603 56.3339 81.8924 56.2631 82.0363C56.1924 82.1801 56.1364 82.3337 56.0962 82.4962C56.0559 82.6586 56.0363 82.825 56.0363 82.9962C56.0363 83.5941 56.2288 83.8925 56.6128 83.8925Z" fill="#383838"/>
<path d="M61.67 84.0677C61.5541 84.1626 61.4372 84.238 61.3204 84.2938C61.2025 84.3495 61.0807 84.3887 60.955 84.4112C60.8283 84.4337 60.6937 84.4444 60.5484 84.4444C60.3284 84.4444 60.1349 84.4073 59.9659 84.3329C59.798 84.2585 59.6566 84.1528 59.5426 84.0178C59.4287 83.8818 59.3423 83.7194 59.2843 83.5285C59.2254 83.3387 59.1969 83.1293 59.1969 82.9003C59.1969 82.594 59.245 82.3005 59.3413 82.0196C59.4375 81.7388 59.5721 81.4902 59.744 81.273C59.9158 81.0567 60.1211 80.8835 60.3578 80.7544C60.5945 80.6252 60.8558 80.5606 61.1406 80.5606C61.3901 80.5606 61.6003 80.6046 61.7702 80.6927C61.9401 80.7808 62.0884 80.9099 62.2161 81.0792L62.0059 81.3288C61.9912 81.3483 61.9725 81.365 61.9499 81.3767C61.9274 81.3894 61.9028 81.3953 61.8753 81.3953C61.8399 81.3953 61.8056 81.3796 61.7722 81.3483C61.7388 81.317 61.6946 81.2828 61.6415 81.2436C61.5875 81.2055 61.5207 81.1702 61.4392 81.1389C61.3577 81.1076 61.2536 81.092 61.1269 81.092C60.955 81.092 60.792 81.1389 60.6378 81.2319C60.4845 81.3248 60.35 81.453 60.2351 81.6145C60.1201 81.776 60.0298 81.9678 59.964 82.1889C59.8982 82.4101 59.8648 82.6478 59.8648 82.9013C59.8648 83.0559 59.8825 83.1958 59.9168 83.3211C59.9522 83.4463 60.0042 83.554 60.074 83.642C60.1437 83.7301 60.2292 83.7986 60.3303 83.8475C60.4315 83.8955 60.5494 83.92 60.6839 83.92C60.7959 83.92 60.8961 83.9082 60.9835 83.8847C61.0709 83.8612 61.1485 83.8319 61.2153 83.7967C61.2821 83.7614 61.342 83.7242 61.3931 83.6831C61.4441 83.642 61.4903 83.6049 61.5315 83.5696C61.5728 83.5344 61.6101 83.505 61.6435 83.4816C61.6769 83.4581 61.7113 83.4463 61.7466 83.4463C61.7967 83.4463 61.839 83.4669 61.8743 83.5099L62.0393 83.7115C61.9097 83.8554 61.7869 83.9738 61.67 84.0677Z" fill="#383838"/>
<path d="M63.6835 80.6134L63.2268 84.3926H62.5717L63.0284 80.6134H63.6835ZM63.9349 79.4264C63.9349 79.491 63.9212 79.5517 63.8956 79.6075C63.8691 79.6633 63.8347 79.7132 63.7905 79.7562C63.7473 79.8002 63.6972 79.8345 63.6422 79.859C63.5872 79.8844 63.5303 79.8961 63.4703 79.8961C63.4134 79.8961 63.3564 79.8844 63.3024 79.859C63.2474 79.8345 63.1993 79.8002 63.158 79.7562C63.1168 79.7132 63.0834 79.6633 63.0588 79.6075C63.0333 79.5517 63.0215 79.491 63.0215 79.4264C63.0215 79.3619 63.0343 79.3012 63.0588 79.2435C63.0834 79.1867 63.1177 79.1358 63.16 79.0928C63.2022 79.0497 63.2513 79.0145 63.3063 78.9881C63.3613 78.9616 63.4173 78.9489 63.4743 78.9489C63.5342 78.9489 63.5912 78.9616 63.6462 78.9861C63.7012 79.0115 63.7503 79.0448 63.7945 79.0889C63.8387 79.1329 63.873 79.1838 63.8976 79.2415C63.9222 79.3002 63.9349 79.3619 63.9349 79.4264Z" fill="#383838"/>
<path d="M65.6567 84.4444C65.4495 84.4444 65.2599 84.4092 65.087 84.3388C64.9152 84.2673 64.7659 84.1656 64.6411 84.0305C64.5164 83.8965 64.4192 83.7321 64.3484 83.5383C64.2787 83.3446 64.2433 83.1224 64.2433 82.8739C64.2433 82.5558 64.2934 82.2554 64.3926 81.9746C64.4928 81.6937 64.6293 81.4472 64.8022 81.2358C64.9761 81.0244 65.1803 80.8581 65.4161 80.7358C65.6518 80.6144 65.9072 80.5528 66.1822 80.5528C66.3894 80.5528 66.579 80.588 66.7509 80.6584C66.9237 80.7299 67.072 80.8317 67.1968 80.9667C67.3215 81.1008 67.4187 81.2661 67.4885 81.4609C67.5582 81.6556 67.5936 81.8767 67.5936 82.1233C67.5936 82.4394 67.5435 82.7379 67.4443 83.0187C67.3441 83.2995 67.2076 83.5461 67.0347 83.7575C66.8609 83.9689 66.6556 84.1362 66.4189 84.2595C66.1841 84.3838 65.9288 84.4444 65.6567 84.4444ZM65.7166 83.9258C65.8993 83.9258 66.0653 83.8759 66.2146 83.7771C66.3639 83.6773 66.4916 83.5452 66.5967 83.3798C66.7017 83.2144 66.7823 83.0236 66.8402 82.8073C66.8972 82.5911 66.9267 82.365 66.9267 82.1282C66.9267 81.7799 66.8579 81.5176 66.7204 81.3415C66.5829 81.1653 66.3845 81.0763 66.1252 81.0763C65.9406 81.0763 65.7736 81.1252 65.6253 81.224C65.477 81.3219 65.3503 81.454 65.2452 81.6194C65.1401 81.7848 65.0595 81.9756 65.0016 82.1918C64.9436 82.4081 64.9152 82.6341 64.9152 82.8709C64.9152 83.2193 64.9829 83.4825 65.1195 83.6596C65.256 83.8377 65.4544 83.9258 65.7166 83.9258ZM67.3686 78.9861L66.4405 79.9451C66.4051 79.9823 66.3698 80.0087 66.3334 80.0234C66.2971 80.0381 66.2539 80.0459 66.2038 80.0459H65.8217L66.4434 79.1427C66.4788 79.0879 66.5171 79.0487 66.5593 79.0233C66.6016 78.9988 66.6615 78.9861 66.7391 78.9861H67.3686Z" fill="#383838"/>
<path d="M68.0689 84.3926L68.5217 80.6095H68.8547C69.0039 80.6095 69.0796 80.6839 69.0796 80.8336L69.0236 81.5646C69.2259 81.2309 69.4538 80.9804 69.7072 80.8111C69.9606 80.6418 70.2238 80.5576 70.4959 80.5576C70.7778 80.5576 70.9968 80.6516 71.153 80.8414C71.3091 81.0303 71.3867 81.3062 71.3867 81.6693C71.3867 81.7192 71.3857 81.7701 71.3828 81.8229C71.3808 81.8748 71.3749 81.9296 71.3681 81.9873L71.0832 84.3935H70.4163L70.7011 81.9873C70.7061 81.9374 70.711 81.8894 70.7139 81.8435C70.7178 81.7975 70.7198 81.7534 70.7198 81.7114C70.7198 81.5078 70.6815 81.3561 70.6059 81.2583C70.5303 81.1604 70.4104 81.1105 70.2484 81.1105C70.1285 81.1105 70.0068 81.1428 69.883 81.2074C69.7592 81.272 69.6404 81.364 69.5255 81.4814C69.4106 81.5998 69.3035 81.7427 69.2053 81.91C69.1061 82.0783 69.0226 82.2652 68.9529 82.4717L68.7358 84.3935H68.0689V84.3926Z" fill="#383838"/>
<path d="M77.1943 79.6173H74.8459L74.621 81.4198H76.5235L76.4528 81.9687H74.5542L74.3254 83.827H76.6807L76.609 84.3935H73.5495L74.2124 79.0468H77.2641L77.1943 79.6173Z" fill="#383838"/>
<path d="M77.4487 84.3926L77.9054 80.6095H78.2384C78.3887 80.6095 78.4633 80.6839 78.4633 80.8336L78.4113 81.5088C78.5989 81.1957 78.8032 80.9588 79.0251 80.7984C79.2471 80.6379 79.4818 80.5576 79.7294 80.5576C79.9867 80.5576 80.1762 80.6447 80.299 80.8209C80.4208 80.996 80.4827 81.2465 80.4827 81.5724C80.6722 81.227 80.8854 80.9716 81.1211 80.8052C81.3568 80.6389 81.6043 80.5567 81.8646 80.5567C82.1445 80.5567 82.3537 80.6477 82.4922 80.8287C82.6307 81.0107 82.7004 81.272 82.7004 81.6125C82.7004 81.6693 82.6975 81.7299 82.6926 81.7916C82.6877 81.8542 82.6818 81.9188 82.6739 81.9853L82.3891 84.3916H81.734L82.0188 81.9853C82.0335 81.864 82.0414 81.7524 82.0414 81.6536C82.0414 81.4667 82.01 81.3297 81.9481 81.2417C81.8852 81.1536 81.7811 81.1095 81.6338 81.1095C81.5267 81.1095 81.4187 81.136 81.3116 81.1898C81.2036 81.2436 81.1005 81.3219 81.0003 81.4246C80.9001 81.5274 80.8078 81.6556 80.7214 81.8092C80.6349 81.9619 80.5583 82.138 80.4905 82.3366L80.247 84.3926H79.5879L79.8767 81.9863C79.8845 81.9188 79.8904 81.8562 79.8953 81.7955C79.9003 81.7358 79.9032 81.68 79.9032 81.6282C79.9032 81.452 79.8737 81.3209 79.8158 81.2368C79.7569 81.1526 79.6537 81.1095 79.5064 81.1095C79.3866 81.1095 79.2717 81.1389 79.1607 81.1996C79.0497 81.2593 78.9446 81.3454 78.8464 81.4589C78.7482 81.5724 78.6558 81.7104 78.5714 81.8728C78.4869 82.0362 78.4093 82.2192 78.3396 82.4227L78.1009 84.3926H77.4487Z" fill="#383838"/>
<path d="M83.1562 85.6725L83.774 80.6095H84.1069C84.2572 80.6095 84.3319 80.6839 84.3319 80.8336L84.268 81.6389C84.3623 81.4745 84.4664 81.3258 84.5784 81.1937C84.6904 81.0606 84.8092 80.9471 84.932 80.8522C85.0557 80.7583 85.1844 80.6849 85.3199 80.634C85.4545 80.5831 85.592 80.5576 85.7315 80.5576C86.0536 80.5576 86.3041 80.6741 86.4838 80.908C86.6636 81.1418 86.7529 81.4843 86.7529 81.9345C86.7529 82.138 86.7323 82.3425 86.6891 82.5461C86.6469 82.7496 86.586 82.9443 86.5074 83.1302C86.4288 83.3152 86.3335 83.4884 86.2226 83.6489C86.1116 83.8094 85.9878 83.9483 85.8523 84.0667C85.7157 84.1851 85.5684 84.2781 85.4083 84.3446C85.2482 84.4112 85.0813 84.4454 84.9064 84.4454C84.7188 84.4454 84.5479 84.4082 84.3937 84.3358C84.2386 84.2624 84.1089 84.1577 84.0038 84.0207L83.8015 85.6735H83.1562V85.6725ZM85.482 81.091C85.3622 81.091 85.2404 81.1281 85.1166 81.2025C84.9929 81.2769 84.874 81.3816 84.7591 81.5156C84.6442 81.6497 84.5371 81.8092 84.4389 81.9932C84.3397 82.1771 84.2543 82.3777 84.1826 82.594L84.0627 83.5569C84.157 83.6939 84.2719 83.7898 84.4055 83.8465C84.5391 83.9023 84.6746 83.9307 84.8121 83.9307C84.9418 83.9307 85.0646 83.9033 85.1795 83.8485C85.2944 83.7937 85.3995 83.7193 85.4938 83.6264C85.5891 83.5334 85.6735 83.4238 85.7482 83.2976C85.8228 83.1723 85.8866 83.0373 85.9377 82.8944C85.9888 82.7515 86.0281 82.6038 86.0556 82.4502C86.0831 82.2965 86.0968 82.1458 86.0968 81.9971C86.0968 81.7016 86.0428 81.4765 85.9358 81.3219C85.8277 81.1683 85.6765 81.091 85.482 81.091Z" fill="#383838"/>
<path d="M87.1969 84.3926L87.6536 80.6095H87.9865C88.0563 80.6095 88.1113 80.6262 88.1516 80.6575C88.1908 80.6898 88.2115 80.7397 88.2115 80.8072C88.2115 80.817 88.2105 80.8317 88.2095 80.8502C88.2085 80.8688 88.2075 80.8884 88.2056 80.908C88.2046 80.9275 88.2036 80.9452 88.2016 80.9608C88.2007 80.9755 88.1997 80.9843 88.1997 80.9872L88.1476 81.6732C88.3097 81.3248 88.4914 81.0567 88.6927 80.8679C88.8941 80.679 89.1052 80.5841 89.3272 80.5841C89.4323 80.5841 89.5374 80.6066 89.6415 80.6506L89.5217 81.2886C89.4048 81.2417 89.2909 81.2182 89.1809 81.2182C88.9383 81.2182 88.7222 81.3356 88.5326 81.5705C88.3431 81.8053 88.184 82.1615 88.0573 82.639L87.8471 84.3926H87.1969Z" fill="#383838"/>
<path d="M92.7098 81.4227C92.7098 81.5871 92.6764 81.7378 92.6087 81.8758C92.5419 82.0137 92.4181 82.138 92.2384 82.2486C92.0586 82.3592 91.8111 82.456 91.4968 82.5373C91.1825 82.6195 90.7779 82.685 90.2838 82.7349C90.2809 82.7623 90.2799 82.7888 90.2799 82.8152C90.2799 82.8416 90.2799 82.868 90.2799 82.8954C90.2799 83.2291 90.3526 83.4835 90.4989 83.6587C90.6453 83.8338 90.8653 83.9219 91.16 83.9219C91.2798 83.9219 91.3868 83.9092 91.4801 83.8847C91.5734 83.8603 91.6569 83.8289 91.7306 83.7937C91.8043 83.7575 91.8691 83.7184 91.9251 83.6743C91.9811 83.6313 92.0331 83.5912 92.0803 83.555C92.1274 83.5187 92.1716 83.4884 92.2109 83.4639C92.2511 83.4385 92.2904 83.4268 92.3307 83.4268C92.3759 83.4268 92.4171 83.4483 92.4545 83.4904L92.6195 83.6959C92.4918 83.828 92.368 83.9405 92.2472 84.0335C92.1264 84.1264 92.0017 84.2047 91.875 84.2664C91.7473 84.329 91.6147 84.374 91.4762 84.4024C91.3377 84.4308 91.1884 84.4454 91.0293 84.4454C90.8123 84.4454 90.6178 84.4092 90.4449 84.3378C90.273 84.2654 90.1267 84.1626 90.0069 84.0295C89.887 83.8965 89.7947 83.735 89.7299 83.5461C89.6651 83.3573 89.6327 83.1459 89.6327 82.912C89.6327 82.7183 89.6533 82.5245 89.6945 82.3318C89.7358 82.139 89.7957 81.955 89.8743 81.7808C89.9529 81.6067 90.0491 81.4452 90.163 81.2955C90.277 81.1468 90.4066 81.0176 90.553 80.909C90.6993 80.8013 90.8604 80.7152 91.0362 80.6536C91.212 80.5919 91.4016 80.5606 91.6039 80.5606C91.7964 80.5606 91.9624 80.588 92.1019 80.6428C92.2413 80.6976 92.3562 80.7671 92.4466 80.8522C92.537 80.9364 92.6038 81.0303 92.647 81.1321C92.6882 81.2338 92.7098 81.3307 92.7098 81.4227ZM91.5636 81.0381C91.4065 81.0381 91.2611 81.0704 91.1295 81.135C90.9969 81.1996 90.88 81.2886 90.7779 81.4022C90.6757 81.5157 90.5883 81.6487 90.5156 81.8014C90.443 81.955 90.387 82.1194 90.3467 82.2956C90.7317 82.2486 91.0401 82.1938 91.2719 82.1331C91.5037 82.0725 91.6825 82.0059 91.8072 81.9355C91.9319 81.864 92.0144 81.7877 92.0547 81.7055C92.094 81.6233 92.1146 81.5372 92.1146 81.4481C92.1146 81.4031 92.1048 81.3571 92.0852 81.3082C92.0655 81.2593 92.0331 81.2153 91.9899 81.1761C91.9467 81.136 91.8897 81.1037 91.82 81.0773C91.7483 81.0518 91.6638 81.0381 91.5636 81.0381Z" fill="#383838"/>
<path d="M95.5709 81.2172C95.5513 81.2465 95.5316 81.269 95.511 81.2827C95.4914 81.2964 95.4658 81.3033 95.4364 81.3033C95.401 81.3033 95.3637 81.2896 95.3224 81.2622C95.2812 81.2348 95.2311 81.2045 95.1731 81.1712C95.1142 81.1379 95.0425 81.1066 94.9581 81.0782C94.8726 81.0499 94.7705 81.0352 94.6506 81.0352C94.5387 81.0352 94.4355 81.0508 94.3432 81.0821C94.2509 81.1135 94.1703 81.1565 94.1036 81.2113C94.0358 81.2661 93.9847 81.3297 93.9484 81.4031C93.912 81.4765 93.8943 81.5548 93.8943 81.636C93.8943 81.7534 93.9327 81.8464 94.0102 81.9159C94.0878 81.9853 94.1851 82.046 94.302 82.0969C94.4198 82.1478 94.5455 82.1967 94.6821 82.2447C94.8186 82.2916 94.9453 82.3513 95.0622 82.4237C95.18 82.4961 95.2773 82.5881 95.3548 82.6997C95.4324 82.8112 95.4707 82.957 95.4707 83.1361C95.4707 83.3103 95.4364 83.4766 95.3676 83.6361C95.2989 83.7956 95.2006 83.9356 95.072 84.0559C94.9433 84.1763 94.7891 84.2732 94.6074 84.3456C94.4267 84.418 94.2234 84.4532 93.9985 84.4532C93.7568 84.4532 93.5427 84.4102 93.3561 84.3241C93.1705 84.238 93.0182 84.1284 92.9014 83.9943L93.0664 83.7409C93.086 83.7086 93.1096 83.6841 93.1371 83.6665C93.1646 83.6489 93.1999 83.6401 93.2422 83.6401C93.2815 83.6401 93.3217 83.6577 93.362 83.6919C93.4013 83.7272 93.4524 83.7663 93.5113 83.8094C93.5712 83.8534 93.6468 83.8925 93.7382 83.9268C93.8295 83.962 93.9444 83.9796 94.0849 83.9796C94.2067 83.9796 94.3177 83.961 94.4159 83.9238C94.5151 83.8867 94.5986 83.8367 94.6663 83.7751C94.7351 83.7125 94.7872 83.6401 94.8235 83.5569C94.8598 83.4737 94.8775 83.3847 94.8775 83.2897C94.8775 83.1625 94.8392 83.0617 94.7616 82.9874C94.684 82.913 94.5868 82.8504 94.4699 82.8005C94.352 82.7506 94.2263 82.7046 94.0918 82.6605C93.9572 82.6175 93.8305 82.5607 93.7136 82.4932C93.5958 82.4247 93.4985 82.3357 93.4209 82.2261C93.3433 82.1165 93.305 81.9707 93.305 81.7896C93.305 81.6301 93.3375 81.4765 93.4003 81.3287C93.4642 81.181 93.5555 81.0499 93.6753 80.9354C93.7952 80.8209 93.9405 80.7299 94.1114 80.6614C94.2823 80.5929 94.4748 80.5586 94.6899 80.5586C94.9168 80.5586 95.1172 80.5968 95.291 80.6721C95.4649 80.7475 95.6141 80.8502 95.7389 80.9794L95.5709 81.2172Z" fill="#383838"/>
<path d="M98.8327 84.3926H98.488C98.4006 84.3926 98.3416 84.3701 98.3102 84.3251C98.2788 84.28 98.2631 84.2253 98.2631 84.1607L98.3299 83.4033C98.2395 83.5618 98.1432 83.7047 98.0401 83.8329C97.937 83.961 97.827 84.0706 97.7101 84.1607C97.5942 84.2507 97.4724 84.3202 97.3447 84.3701C97.2171 84.419 97.0854 84.4444 96.9479 84.4444C96.7986 84.4444 96.6621 84.4151 96.5393 84.3574C96.4176 84.2986 96.3125 84.2125 96.227 84.1C96.1406 83.9865 96.0738 83.8475 96.0267 83.6822C95.9795 83.5168 95.955 83.327 95.955 83.1136C95.955 82.8895 95.9834 82.6713 96.0394 82.459C96.0954 82.2466 96.1759 82.0451 96.2791 81.8562C96.3822 81.6673 96.5069 81.4941 96.6513 81.3356C96.7957 81.1781 96.9578 81.0411 97.1365 80.9256C97.3153 80.8101 97.5068 80.7201 97.7111 80.6565C97.9154 80.5929 98.1305 80.5616 98.3554 80.5616C98.5175 80.5616 98.6756 80.5743 98.8288 80.6007C98.982 80.6271 99.1343 80.6731 99.2836 80.7387L98.8327 84.3926ZM97.1994 83.8925C97.3212 83.8925 97.442 83.8554 97.5589 83.781C97.6767 83.7066 97.7877 83.6029 97.8918 83.4708C97.9959 83.3387 98.0941 83.1811 98.1855 82.9991C98.2768 82.8171 98.3574 82.6165 98.4271 82.3983L98.5882 81.1203C98.5332 81.0763 98.4792 81.0538 98.4251 81.0538C98.3711 81.0538 98.3181 81.0538 98.266 81.0538C98.1158 81.0538 97.9714 81.0783 97.8319 81.1262C97.6924 81.1741 97.5608 81.2417 97.439 81.3288C97.3172 81.4159 97.2053 81.5196 97.1061 81.6399C97.0059 81.7603 96.9204 81.8924 96.8497 82.0363C96.779 82.1801 96.723 82.3337 96.6827 82.4962C96.6425 82.6586 96.6228 82.825 96.6228 82.9962C96.6228 83.5941 96.8153 83.8925 97.1994 83.8925Z" fill="#383838"/>
<path d="M99.8247 84.3926L100.281 80.6095H100.614C100.684 80.6095 100.739 80.6262 100.779 80.6575C100.819 80.6898 100.839 80.7397 100.839 80.8072C100.839 80.817 100.838 80.8317 100.837 80.8502C100.836 80.8688 100.835 80.8884 100.833 80.908C100.832 80.9275 100.831 80.9452 100.83 80.9608C100.829 80.9755 100.828 80.9843 100.828 80.9872L100.775 81.6732C100.938 81.3248 101.119 81.0567 101.321 80.8679C101.522 80.679 101.733 80.5841 101.955 80.5841C102.06 80.5841 102.165 80.6066 102.269 80.6506L102.15 81.2886C102.033 81.2417 101.919 81.2182 101.809 81.2182C101.566 81.2182 101.35 81.3356 101.16 81.5705C100.971 81.8053 100.812 82.1615 100.685 82.639L100.475 84.3926H99.8247Z" fill="#383838"/>
<path d="M103.656 80.6134L103.2 84.3926H102.544L103.001 80.6134H103.656ZM103.908 79.4264C103.908 79.491 103.894 79.5517 103.868 79.6075C103.842 79.6633 103.807 79.7132 103.763 79.7562C103.72 79.8002 103.67 79.8345 103.615 79.859C103.56 79.8844 103.503 79.8961 103.443 79.8961C103.386 79.8961 103.329 79.8844 103.275 79.859C103.22 79.8345 103.172 79.8002 103.131 79.7562C103.09 79.7132 103.056 79.6633 103.032 79.6075C103.006 79.5517 102.994 79.491 102.994 79.4264C102.994 79.3619 103.007 79.3012 103.032 79.2435C103.056 79.1867 103.09 79.1358 103.133 79.0928C103.175 79.0497 103.224 79.0145 103.279 78.9881C103.334 78.9616 103.39 78.9489 103.447 78.9489C103.507 78.9489 103.564 78.9616 103.619 78.9861C103.674 79.0115 103.723 79.0448 103.767 79.0889C103.811 79.1329 103.846 79.1838 103.87 79.2415C103.895 79.3002 103.908 79.3619 103.908 79.4264Z" fill="#383838"/>
<path d="M107.067 84.3926H106.723C106.635 84.3926 106.576 84.3701 106.545 84.3251C106.513 84.28 106.498 84.2253 106.498 84.1607L106.564 83.4033C106.474 83.5618 106.378 83.7047 106.275 83.8329C106.172 83.961 106.062 84.0706 105.945 84.1607C105.829 84.2507 105.707 84.3202 105.579 84.3701C105.452 84.419 105.32 84.4444 105.183 84.4444C105.033 84.4444 104.897 84.4151 104.774 84.3574C104.652 84.2986 104.547 84.2125 104.462 84.1C104.375 83.9865 104.308 83.8475 104.261 83.6822C104.214 83.5168 104.19 83.327 104.19 83.1136C104.19 82.8895 104.218 82.6713 104.274 82.459C104.33 82.2466 104.411 82.0451 104.514 81.8562C104.617 81.6673 104.742 81.4941 104.886 81.3356C105.03 81.1781 105.192 81.0411 105.371 80.9256C105.55 80.8101 105.741 80.7201 105.946 80.6565C106.15 80.5929 106.365 80.5616 106.59 80.5616C106.752 80.5616 106.91 80.5743 107.063 80.6007C107.217 80.6271 107.369 80.6731 107.518 80.7387L107.067 84.3926ZM105.435 83.8925C105.557 83.8925 105.678 83.8554 105.794 83.781C105.912 83.7066 106.023 83.6029 106.127 83.4708C106.231 83.3387 106.33 83.1811 106.421 82.9991C106.512 82.8171 106.593 82.6165 106.663 82.3983L106.824 81.1203C106.769 81.0763 106.715 81.0538 106.661 81.0538C106.607 81.0538 106.554 81.0538 106.502 81.0538C106.351 81.0538 106.207 81.0783 106.067 81.1262C105.928 81.1741 105.796 81.2417 105.675 81.3288C105.553 81.4159 105.441 81.5196 105.342 81.6399C105.241 81.7603 105.156 81.8924 105.085 82.0363C105.015 82.1801 104.959 82.3337 104.918 82.4962C104.878 82.6586 104.858 82.825 104.858 82.9962C104.858 83.5941 105.051 83.8925 105.435 83.8925Z" fill="#383838"/>
<path d="M108.124 84.3926L108.794 78.8971H109.449L108.779 84.3926H108.124Z" fill="#383838"/>
<path d="M22.1068 94.8473C22.0548 94.9491 21.9772 95 21.875 95H21.3879L22.208 93.496L21.2268 89.9399H21.7768C21.8289 89.9399 21.8682 89.9527 21.8947 89.9791C21.9212 90.0055 21.9389 90.0388 21.9487 90.0779L22.5596 92.4587C22.5724 92.5106 22.5822 92.5634 22.5891 92.6153C22.5969 92.6681 22.6028 92.72 22.6078 92.7718C22.6303 92.72 22.6519 92.6671 22.6736 92.6133C22.6942 92.5595 22.7187 92.5067 22.7462 92.4548L23.9445 90.0711C23.9641 90.0309 23.9926 89.9996 24.029 89.9761C24.0653 89.9527 24.1016 89.9409 24.14 89.9409H24.6684L22.1068 94.8473Z" fill="#383838"/>
<path d="M29.9407 88.9448H27.5923L27.3674 90.7472H29.2699L29.1992 91.2962H27.3006L27.0718 93.1545H29.427L29.3563 93.721H26.2968L26.9598 88.3743H30.0114L29.9407 88.9448Z" fill="#383838"/>
<path d="M31.2775 91.6866L30.368 89.9409H30.9632C31.0133 89.9409 31.0486 89.9478 31.0702 89.9615C31.0919 89.9752 31.1105 89.9996 31.1282 90.0339L31.7646 91.3324C31.7774 91.305 31.7902 91.2786 31.8039 91.2541C31.8177 91.2297 31.8344 91.2032 31.854 91.1758L32.7115 90.0456C32.739 90.0104 32.7635 89.9849 32.7861 89.9673C32.8087 89.9497 32.8362 89.9409 32.8686 89.9409H33.4717L32.1163 91.6906L33.1269 93.7201H32.5317C32.4816 93.7201 32.4433 93.7073 32.4158 93.6809C32.3883 93.6545 32.3657 93.6242 32.3481 93.5899L31.633 92.079C31.6085 92.1338 31.582 92.1808 31.5545 92.2209L30.5212 93.5938C30.4967 93.629 30.4692 93.6584 30.4387 93.6838C30.4092 93.7083 30.3709 93.721 30.3267 93.721H29.7423L31.2775 91.6866Z" fill="#383838"/>
<path d="M34.0335 93.0077C34.0335 92.993 34.0345 92.9734 34.0354 92.9499C34.0364 92.9264 34.0394 92.8922 34.0433 92.8472C34.0472 92.8022 34.0531 92.7444 34.06 92.672C34.0679 92.5996 34.0787 92.5057 34.0934 92.3882L34.3291 90.4967H33.9058C33.8734 90.4967 33.8469 90.4869 33.8253 90.4683C33.8036 90.4497 33.7938 90.4204 33.7938 90.3813C33.7938 90.3734 33.7948 90.3587 33.7977 90.3362C33.7997 90.3137 33.8036 90.2883 33.8076 90.2599C33.8115 90.2315 33.8154 90.2022 33.8184 90.1718C33.8223 90.1425 33.8253 90.1131 33.8282 90.0857L34.4126 90.0074L34.6935 88.8391C34.7033 88.8019 34.722 88.7715 34.7495 88.7481C34.777 88.7246 34.8104 88.7128 34.8506 88.7128H35.2023L35.0373 90.0153H36.0332L35.9772 90.4967H34.9773L34.7485 92.355C34.7357 92.4567 34.7269 92.5389 34.72 92.6016C34.7141 92.6642 34.7092 92.7131 34.7053 92.7503C34.7014 92.7875 34.6994 92.8139 34.6974 92.8286C34.6964 92.8433 34.6955 92.855 34.6955 92.8619C34.6955 92.9891 34.7249 93.083 34.7839 93.1437C34.8428 93.2043 34.9233 93.2347 35.0255 93.2347C35.0903 93.2347 35.1473 93.2249 35.1974 93.2063C35.2474 93.1877 35.2907 93.1672 35.327 93.1447C35.3633 93.1222 35.3938 93.1016 35.4183 93.083C35.4429 93.0644 35.4655 93.0546 35.4861 93.0546C35.5067 93.0546 35.5215 93.0595 35.5333 93.0693C35.5441 93.0791 35.5568 93.0957 35.5686 93.1173L35.7071 93.4343C35.5873 93.541 35.4488 93.6251 35.2936 93.6858C35.1374 93.7465 34.9813 93.7768 34.8241 93.7768C34.5815 93.7768 34.391 93.7112 34.2515 93.5791C34.1111 93.45 34.0394 93.2591 34.0335 93.0077Z" fill="#383838"/>
<path d="M39.3029 90.7502C39.3029 90.9145 39.2695 91.0652 39.2017 91.2032C39.1339 91.3412 39.0111 91.4655 38.8314 91.5761C38.6517 91.6866 38.4042 91.7835 38.0899 91.8647C37.7756 91.9469 37.3709 92.0125 36.8769 92.0624C36.8739 92.0898 36.8729 92.1162 36.8729 92.1426C36.8729 92.1691 36.8729 92.1955 36.8729 92.2229C36.8729 92.5565 36.9456 92.811 37.092 92.9861C37.2383 93.1613 37.4583 93.2494 37.753 93.2494C37.8728 93.2494 37.9799 93.2376 38.0732 93.2122C38.1665 93.1877 38.25 93.1564 38.3236 93.1212C38.3973 93.085 38.4621 93.0458 38.5181 93.0018C38.5741 92.9587 38.6261 92.9186 38.6733 92.8824C38.7204 92.8462 38.7646 92.8159 38.8039 92.7914C38.8442 92.766 38.8835 92.7542 38.9237 92.7542C38.9689 92.7542 39.0102 92.7757 39.0475 92.8178L39.2125 93.0233C39.0848 93.1554 38.961 93.268 38.8402 93.3609C38.7194 93.4539 38.5947 93.5322 38.468 93.5938C38.3403 93.6564 38.2077 93.7014 38.0692 93.7298C37.9307 93.7582 37.7815 93.7729 37.6214 93.7729C37.4043 93.7729 37.2098 93.7367 37.037 93.6652C36.8651 93.5928 36.7187 93.4901 36.5989 93.357C36.4791 93.2239 36.3868 93.0625 36.3219 92.8736C36.2571 92.6847 36.2247 92.4734 36.2247 92.2395C36.2247 92.0458 36.2453 91.852 36.2866 91.6592C36.3278 91.4665 36.3877 91.2825 36.4663 91.1083C36.5449 90.9341 36.6411 90.7727 36.7551 90.6229C36.869 90.4742 36.9987 90.345 37.145 90.2364C37.2913 90.1288 37.4524 90.0427 37.6282 89.981C37.804 89.9194 37.9936 89.8881 38.1959 89.8881C38.3884 89.8881 38.5544 89.9155 38.6939 89.9703C38.8334 90.0251 38.9483 90.0945 39.0386 90.1797C39.128 90.2638 39.1958 90.3578 39.239 90.4595C39.2812 90.5613 39.3029 90.6582 39.3029 90.7502ZM38.1566 90.3656C37.9995 90.3656 37.8541 90.3979 37.7225 90.4625C37.5899 90.5271 37.473 90.6161 37.3709 90.7296C37.2688 90.8431 37.1813 90.9762 37.1087 91.1288C37.036 91.2825 36.98 91.4469 36.9407 91.623C37.3247 91.576 37.6331 91.5212 37.8659 91.4606C38.0977 91.3999 38.2765 91.3334 38.4012 91.2629C38.5259 91.1915 38.6084 91.1152 38.6487 91.033C38.689 90.9508 38.7086 90.8646 38.7086 90.7756C38.7086 90.7306 38.6988 90.6846 38.6782 90.6357C38.6585 90.5867 38.6261 90.5427 38.5829 90.5036C38.5387 90.4634 38.4827 90.4312 38.412 90.4047C38.3413 90.3793 38.2568 90.3656 38.1566 90.3656Z" fill="#383838"/>
<path d="M39.7223 93.7201L40.175 89.937H40.508C40.6573 89.937 40.7329 90.0114 40.7329 90.1611L40.6769 90.8921C40.8793 90.5584 41.1071 90.3079 41.3605 90.1386C41.6139 89.9693 41.8762 89.8851 42.1492 89.8851C42.4311 89.8851 42.6501 89.9791 42.8063 90.1689C42.9625 90.3578 43.0401 90.6337 43.0401 90.9968C43.0401 91.0467 43.0391 91.0976 43.0361 91.1504C43.0342 91.2023 43.0283 91.257 43.0214 91.3148L42.7366 93.721H42.0697L42.3545 91.3148C42.3594 91.2649 42.3643 91.2169 42.3673 91.1709C42.3712 91.1249 42.3732 91.0809 42.3732 91.0388C42.3732 90.8353 42.3349 90.6836 42.2592 90.5858C42.1826 90.4879 42.0638 90.438 41.9017 90.438C41.7819 90.438 41.6601 90.4703 41.5363 90.5349C41.4126 90.5995 41.2937 90.6915 41.1788 90.8089C41.0639 90.9273 40.9569 91.0702 40.8586 91.2375C40.7604 91.4058 40.676 91.5927 40.6062 91.7992L40.3892 93.721H39.7223V93.7201Z" fill="#383838"/>
<path d="M46.1035 90.5456C46.0838 90.575 46.0632 90.5975 46.0436 90.6112C46.0239 90.6249 45.9984 90.6318 45.9689 90.6318C45.9336 90.6318 45.8962 90.6181 45.855 90.5907C45.8137 90.5633 45.7636 90.5329 45.7047 90.4997C45.6458 90.4664 45.5741 90.4351 45.4896 90.4067C45.4051 90.3783 45.302 90.3636 45.1822 90.3636C45.0702 90.3636 44.9671 90.3793 44.8748 90.4106C44.7824 90.4419 44.7029 90.485 44.6351 90.5398C44.5673 90.5946 44.5163 90.6582 44.4799 90.7316C44.4436 90.805 44.4259 90.8832 44.4259 90.9645C44.4259 91.0819 44.4642 91.1748 44.5418 91.2443C44.6194 91.3138 44.7166 91.3745 44.8335 91.4254C44.9504 91.4762 45.0771 91.5252 45.2136 91.5731C45.3492 91.6201 45.4759 91.6798 45.5937 91.7522C45.7106 91.8246 45.8088 91.9166 45.8854 92.0281C45.963 92.1397 46.0013 92.2855 46.0013 92.4646C46.0013 92.6387 45.967 92.8051 45.8982 92.9646C45.8294 93.1241 45.7312 93.264 45.6026 93.3844C45.4739 93.5048 45.3197 93.6016 45.138 93.674C44.9573 93.7465 44.754 93.7817 44.529 93.7817C44.2864 93.7817 44.0723 93.7386 43.8867 93.6525C43.7011 93.5664 43.5488 93.4568 43.4319 93.3228L43.597 93.0693C43.6166 93.037 43.6402 93.0126 43.6677 92.9949C43.6952 92.9773 43.7305 92.9685 43.7728 92.9685C43.813 92.9685 43.8523 92.9861 43.8926 93.0204C43.9329 93.0556 43.982 93.0947 44.0419 93.1378C44.1018 93.1818 44.1774 93.221 44.2688 93.2552C44.3601 93.2905 44.475 93.3081 44.6155 93.3081C44.7382 93.3081 44.8482 93.2895 44.9465 93.2523C45.0447 93.2151 45.1292 93.1652 45.1969 93.1036C45.2657 93.0409 45.3177 92.9685 45.3541 92.8853C45.3904 92.8022 45.4081 92.7131 45.4081 92.6182C45.4081 92.491 45.3698 92.3902 45.2922 92.3158C45.2146 92.2415 45.1174 92.1788 45.0005 92.1289C44.8836 92.079 44.7569 92.033 44.6223 91.989C44.4878 91.9459 44.3611 91.8892 44.2442 91.8217C44.1273 91.7532 44.0291 91.6641 43.9525 91.5545C43.8749 91.4449 43.8366 91.2991 43.8366 91.1181C43.8366 90.9586 43.868 90.805 43.9319 90.6572C43.9957 90.5094 44.0871 90.3783 44.2069 90.2638C44.3267 90.1493 44.4721 90.0583 44.643 89.9898C44.8139 89.9213 45.0064 89.8871 45.2215 89.8871C45.4484 89.8871 45.6487 89.9253 45.8226 90.0006C45.9964 90.0759 46.1457 90.1787 46.2704 90.3079L46.1035 90.5456Z" fill="#383838"/>
<path d="M47.7771 89.9409L47.3204 93.72H46.6653L47.122 89.9409H47.7771ZM48.0285 88.7539C48.0285 88.8185 48.0158 88.8792 47.9893 88.935C47.9627 88.9907 47.9284 89.0406 47.8842 89.0837C47.84 89.1277 47.7909 89.162 47.7359 89.1864C47.6809 89.2119 47.6239 89.2236 47.564 89.2236C47.506 89.2236 47.45 89.2119 47.395 89.1864C47.34 89.162 47.2919 89.1277 47.2507 89.0837C47.2094 89.0406 47.176 88.9907 47.1515 88.935C47.1269 88.8792 47.1141 88.8185 47.1141 88.7539C47.1141 88.6893 47.1269 88.6287 47.1515 88.5709C47.176 88.5142 47.2104 88.4633 47.2526 88.4202C47.2949 88.3772 47.344 88.342 47.399 88.3155C47.454 88.2891 47.51 88.2764 47.5679 88.2764C47.6278 88.2764 47.6848 88.2891 47.7398 88.3136C47.7948 88.339 47.8439 88.3723 47.8881 88.4163C47.9313 88.4604 47.9657 88.5113 47.9912 88.569C48.0158 88.6277 48.0285 88.6893 48.0285 88.7539Z" fill="#383838"/>
<path d="M49.7513 93.7719C49.544 93.7719 49.3545 93.7367 49.1816 93.6662C49.0097 93.5948 48.8604 93.493 48.7357 93.358C48.611 93.2239 48.5137 93.0595 48.444 92.8658C48.3743 92.672 48.3389 92.4499 48.3389 92.2014C48.3389 91.8833 48.389 91.5829 48.4892 91.3021C48.5894 91.0212 48.7259 90.7746 48.8987 90.5633C49.0716 90.3519 49.2769 90.1856 49.5126 90.0632C49.7483 89.9419 50.0037 89.8803 50.2787 89.8803C50.4859 89.8803 50.6755 89.9155 50.8484 89.9859C51.0203 90.0574 51.1695 90.1591 51.2943 90.2942C51.419 90.4282 51.5162 90.5936 51.586 90.7883C51.6557 90.9831 51.6911 91.2042 51.6911 91.4508C51.6911 91.7669 51.641 92.0653 51.5418 92.3462C51.4416 92.627 51.3051 92.8736 51.1312 93.085C50.9574 93.2964 50.7521 93.4637 50.5154 93.587C50.2777 93.7113 50.0233 93.7719 49.7513 93.7719ZM49.8112 93.2543C49.9939 93.2543 50.1599 93.2044 50.3091 93.1055C50.4594 93.0057 50.5861 92.8736 50.6912 92.7082C50.7963 92.5429 50.8768 92.352 50.9348 92.1358C50.9918 91.9195 51.0212 91.6935 51.0212 91.4567C51.0212 91.1083 50.9525 90.8461 50.815 90.6699C50.6775 90.4938 50.4791 90.4048 50.2198 90.4048C50.0351 90.4048 49.8682 90.4537 49.7198 90.5525C49.5715 90.6504 49.4448 90.7825 49.3397 90.9478C49.2346 91.1132 49.1541 91.304 49.0962 91.5203C49.0392 91.7365 49.0097 91.9626 49.0097 92.1994C49.0097 92.5478 49.0775 92.811 49.214 92.9881C49.3496 93.1652 49.5489 93.2543 49.8112 93.2543ZM51.4622 88.3136L50.5331 89.2726C50.4977 89.3098 50.4624 89.3362 50.426 89.3509C50.3897 89.3655 50.3465 89.3734 50.2964 89.3734H49.9143L50.536 88.4702C50.5714 88.4154 50.6097 88.3762 50.6519 88.3508C50.6942 88.3263 50.7541 88.3136 50.8317 88.3136H51.4622Z" fill="#383838"/>
<path d="M52.1625 93.7201L52.6153 89.937H52.9483C53.0976 89.937 53.1732 90.0114 53.1732 90.1611L53.1172 90.8921C53.3195 90.5584 53.5474 90.3079 53.8008 90.1386C54.0542 89.9693 54.3165 89.8851 54.5895 89.8851C54.8714 89.8851 55.0904 89.9791 55.2466 90.1689C55.4027 90.3578 55.4803 90.6337 55.4803 90.9968C55.4803 91.0467 55.4794 91.0976 55.4764 91.1504C55.4745 91.2023 55.4686 91.257 55.4617 91.3148L55.1768 93.721H54.5099L54.7948 91.3148C54.7997 91.2649 54.8046 91.2169 54.8076 91.1709C54.8115 91.1249 54.8134 91.0809 54.8134 91.0388C54.8134 90.8353 54.7751 90.6836 54.6995 90.5858C54.6229 90.4879 54.5041 90.438 54.342 90.438C54.2222 90.438 54.1004 90.4703 53.9766 90.5349C53.8529 90.5995 53.734 90.6915 53.6191 90.8089C53.5042 90.9273 53.3971 91.0702 53.2989 91.2375C53.2007 91.4058 53.1162 91.5927 53.0465 91.7992L52.8294 93.721H52.1625V93.7201Z" fill="#383838"/>
<path d="M58.6528 91.7131L58.4053 93.7201H57.7089L58.364 88.3733H59.8432C60.128 88.3733 60.3745 88.4066 60.5847 88.4741C60.7949 88.5416 60.9668 88.6375 61.1033 88.7618C61.2398 88.886 61.341 89.0358 61.4088 89.209C61.4755 89.3831 61.5099 89.5769 61.5099 89.7912C61.5099 90.072 61.4638 90.3304 61.3714 90.5652C61.2791 90.8001 61.1446 91.0026 60.9687 91.1719C60.7929 91.3412 60.5759 91.4733 60.3176 91.5692C60.0592 91.6651 59.7636 91.7131 59.4316 91.7131H58.6528ZM58.9975 88.9223L58.7205 91.1612H59.4994C59.7116 91.1612 59.8992 91.1289 60.0612 91.0643C60.2233 90.9997 60.3598 90.9097 60.4698 90.7942C60.5798 90.6787 60.6633 90.5408 60.7203 90.3803C60.7772 90.2198 60.8067 90.0446 60.8067 89.8558C60.8067 89.7119 60.7851 89.5828 60.7428 89.4673C60.7006 89.3528 60.6368 89.255 60.5523 89.1747C60.4678 89.0945 60.3598 89.0318 60.2301 88.9878C60.1005 88.9438 59.9492 88.9223 59.7774 88.9223H58.9975Z" fill="#383838"/>
<path d="M61.7722 93.7201L62.2289 89.937H62.5618C62.6316 89.937 62.6866 89.9536 62.7268 89.985C62.7661 90.0172 62.7867 90.0672 62.7867 90.1347C62.7867 90.1445 62.7858 90.1591 62.7848 90.1777C62.7838 90.1963 62.7828 90.2159 62.7809 90.2355C62.7799 90.255 62.7789 90.2726 62.7769 90.2883C62.7759 90.303 62.775 90.3118 62.775 90.3147L62.7229 91.0007C62.885 90.6523 63.0667 90.3842 63.268 90.1953C63.4694 90.0065 63.6805 89.9116 63.9025 89.9116C64.0076 89.9116 64.1127 89.9341 64.2168 89.9781L64.097 90.6161C63.9801 90.5691 63.8662 90.5457 63.7562 90.5457C63.5136 90.5457 63.2975 90.6631 63.1079 90.8979C62.9184 91.1328 62.7592 91.489 62.6325 91.9665L62.4224 93.7201H61.7722Z" fill="#383838"/>
<path d="M65.6027 93.7719C65.3954 93.7719 65.2059 93.7367 65.033 93.6662C64.8611 93.5948 64.7118 93.493 64.5871 93.358C64.4624 93.2239 64.3651 93.0595 64.2944 92.8658C64.2247 92.672 64.1893 92.4499 64.1893 92.2014C64.1893 91.8833 64.2394 91.5829 64.3386 91.3021C64.4388 91.0212 64.5753 90.7746 64.7482 90.5633C64.9211 90.3519 65.1263 90.1856 65.3621 90.0632C65.5978 89.9419 65.8531 89.8802 66.1282 89.8802C66.3354 89.8802 66.525 89.9155 66.6968 89.9859C66.8697 90.0574 67.018 90.1591 67.1427 90.2942C67.2675 90.4292 67.3647 90.5936 67.4345 90.7883C67.5042 90.9831 67.5395 91.2042 67.5395 91.4508C67.5395 91.7669 67.4895 92.0653 67.3903 92.3462C67.2911 92.627 67.1536 92.8736 66.9807 93.085C66.8068 93.2963 66.6016 93.4637 66.3649 93.587C66.1301 93.7112 65.8748 93.7719 65.6027 93.7719ZM65.6626 93.2543C65.8453 93.2543 66.0113 93.2044 66.1606 93.1055C66.3099 93.0067 66.4375 92.8736 66.5426 92.7082C66.6477 92.5429 66.7283 92.352 66.7862 92.1358C66.8432 91.9195 66.8726 91.6935 66.8726 91.4567C66.8726 91.1083 66.8039 90.8461 66.6664 90.6699C66.5289 90.4938 66.3305 90.4047 66.0712 90.4047C65.8865 90.4047 65.7196 90.4537 65.5713 90.5525C65.4229 90.6504 65.2962 90.7825 65.1912 90.9478C65.0861 91.1132 65.0055 91.304 64.9476 91.5203C64.8896 91.7365 64.8611 91.9626 64.8611 92.1994C64.8611 92.5478 64.9289 92.811 65.0654 92.9881C65.202 93.1652 65.4004 93.2543 65.6626 93.2543Z" fill="#383838"/>
<path d="M69.1493 90.4928L68.7712 93.5968L68.5993 94.3688C68.5571 94.5557 68.4422 94.6487 68.2546 94.6487H67.9923L68.4981 90.5036L68.1239 90.4547C68.0817 90.4419 68.0483 90.4253 68.0228 90.4028C67.9982 90.3803 67.9854 90.348 67.9854 90.3059L68.0149 90.0153H68.5581L68.6032 89.6493C68.6307 89.4331 68.6848 89.2413 68.7663 89.073C68.8478 88.9056 68.9499 88.7637 69.0737 88.6473C69.1975 88.5318 69.3389 88.4438 69.497 88.3841C69.6551 88.3244 69.826 88.294 70.0077 88.294C70.1629 88.294 70.3034 88.3195 70.4311 88.3704L70.3672 88.7119C70.3623 88.7461 70.3456 88.7686 70.3162 88.7765C70.2877 88.7853 70.2503 88.7892 70.2052 88.7892C70.1826 88.7892 70.158 88.7892 70.1325 88.7892C70.106 88.7892 70.0785 88.7892 70.048 88.7892C69.941 88.7892 69.8418 88.8048 69.7504 88.8362C69.6591 88.8675 69.5785 88.9174 69.5088 88.9868C69.4391 89.0563 69.3801 89.1473 69.333 89.2579C69.2858 89.3695 69.2515 89.5065 69.2318 89.6669L69.1866 90.0133H70.1345L70.0706 90.4909H69.1493V90.4928Z" fill="#383838"/>
<path d="M73.3138 90.7502C73.3138 90.9145 73.2804 91.0652 73.2126 91.2032C73.1458 91.3412 73.0221 91.4655 72.8423 91.5761C72.6626 91.6866 72.4151 91.7835 72.1008 91.8647C71.7865 91.9469 71.3818 92.0125 70.8878 92.0624C70.8848 92.0898 70.8839 92.1162 70.8839 92.1426C70.8839 92.1691 70.8839 92.1955 70.8839 92.2229C70.8839 92.5565 70.9565 92.811 71.1029 92.9861C71.2492 93.1613 71.4692 93.2494 71.7639 93.2494C71.8837 93.2494 71.9908 93.2376 72.0841 93.2122C72.1774 93.1877 72.2609 93.1564 72.3345 93.1212C72.4082 93.085 72.473 93.0458 72.529 93.0018C72.585 92.9587 72.637 92.9186 72.6842 92.8824C72.7313 92.8462 72.7755 92.8159 72.8148 92.7914C72.8551 92.766 72.8944 92.7542 72.9347 92.7542C72.9798 92.7542 73.0211 92.7757 73.0584 92.8178L73.2234 93.0233C73.0957 93.1554 72.972 93.268 72.8512 93.3609C72.7304 93.4539 72.6056 93.5322 72.4789 93.5938C72.3512 93.6564 72.2186 93.7014 72.0802 93.7298C71.9417 93.7582 71.7924 93.7729 71.6333 93.7729C71.4162 93.7729 71.2217 93.7367 71.0489 93.6652C70.877 93.5928 70.7306 93.4901 70.6108 93.357C70.491 93.2239 70.3987 93.0625 70.3338 92.8736C70.269 92.6847 70.2366 92.4734 70.2366 92.2395C70.2366 92.0458 70.2572 91.852 70.2985 91.6592C70.3397 91.4665 70.3996 91.2825 70.4782 91.1083C70.5568 90.9341 70.653 90.7727 70.767 90.6229C70.8809 90.4742 71.0106 90.345 71.1569 90.2364C71.3032 90.1288 71.4643 90.0427 71.6401 89.981C71.8159 89.9194 72.0055 89.8881 72.2078 89.8881C72.4003 89.8881 72.5663 89.9155 72.7058 89.9703C72.8453 90.0251 72.9602 90.0945 73.0505 90.1797C73.1409 90.2638 73.2077 90.3578 73.2509 90.4595C73.2922 90.5613 73.3138 90.6582 73.3138 90.7502ZM72.1676 90.3656C72.0104 90.3656 71.8651 90.3979 71.7334 90.4625C71.6008 90.5271 71.484 90.6161 71.3818 90.7296C71.2797 90.8431 71.1923 90.9762 71.1196 91.1288C71.0469 91.2825 70.9909 91.4469 70.9506 91.623C71.3357 91.576 71.6441 91.5212 71.8759 91.4606C72.1077 91.3999 72.2864 91.3334 72.4111 91.2629C72.5359 91.1915 72.6184 91.1152 72.6587 91.033C72.6979 90.9508 72.7186 90.8646 72.7186 90.7756C72.7186 90.7306 72.7088 90.6846 72.6891 90.6357C72.6695 90.5867 72.637 90.5427 72.5938 90.5036C72.5506 90.4634 72.4937 90.4312 72.4239 90.4047C72.3542 90.3783 72.2678 90.3656 72.1676 90.3656Z" fill="#383838"/>
<path d="M76.1748 90.5456C76.1552 90.575 76.1356 90.5975 76.1149 90.6112C76.0953 90.6249 76.0697 90.6318 76.0403 90.6318C76.0049 90.6318 75.9676 90.6181 75.9263 90.5907C75.8851 90.5633 75.835 90.5329 75.7771 90.4997C75.7181 90.4664 75.6464 90.4351 75.562 90.4067C75.4765 90.3783 75.3744 90.3636 75.2545 90.3636C75.1426 90.3636 75.0394 90.3793 74.9471 90.4106C74.8548 90.4419 74.7743 90.485 74.7075 90.5398C74.6397 90.5946 74.5886 90.6582 74.5523 90.7316C74.5159 90.805 74.4983 90.8832 74.4983 90.9645C74.4983 91.0819 74.5366 91.1748 74.6142 91.2443C74.6917 91.3138 74.789 91.3745 74.9059 91.4254C75.0237 91.4762 75.1494 91.5252 75.286 91.5731C75.4225 91.6201 75.5492 91.6798 75.6661 91.7522C75.7839 91.8246 75.8812 91.9166 75.9588 92.0281C76.0364 92.1397 76.0747 92.2855 76.0747 92.4646C76.0747 92.6387 76.0403 92.8051 75.9715 92.9646C75.9028 93.1241 75.8046 93.264 75.6759 93.3844C75.5472 93.5048 75.393 93.6016 75.2113 93.674C75.0306 93.7465 74.8273 93.7817 74.6024 93.7817C74.3598 93.7817 74.1466 93.7386 73.96 93.6525C73.7744 93.5664 73.6222 93.4568 73.5053 93.3228L73.6703 93.0693C73.6899 93.037 73.7135 93.0126 73.741 92.9949C73.7685 92.9773 73.8039 92.9685 73.8461 92.9685C73.8854 92.9685 73.9257 92.9861 73.9659 93.0204C74.0052 93.0556 74.0563 93.0947 74.1152 93.1378C74.1751 93.1818 74.2507 93.221 74.3421 93.2552C74.4334 93.2905 74.5484 93.3081 74.6888 93.3081C74.8106 93.3081 74.9216 93.2895 75.0198 93.2523C75.119 93.2151 75.2025 93.1652 75.2703 93.1036C75.339 93.0409 75.3911 92.9685 75.4274 92.8853C75.4637 92.8022 75.4814 92.7131 75.4814 92.6182C75.4814 92.491 75.4431 92.3902 75.3655 92.3158C75.2879 92.2415 75.1907 92.1788 75.0738 92.1289C74.956 92.079 74.8302 92.033 74.6957 91.989C74.5611 91.9459 74.4344 91.8892 74.3175 91.8217C74.1997 91.7532 74.1024 91.6641 74.0249 91.5545C73.9473 91.4449 73.909 91.2991 73.909 91.1181C73.909 90.9586 73.9414 90.805 74.0042 90.6572C74.0681 90.5094 74.1594 90.3783 74.2792 90.2638C74.3991 90.1493 74.5444 90.0583 74.7153 89.9898C74.8862 89.9213 75.0787 89.8871 75.2938 89.8871C75.5207 89.8871 75.7211 89.9253 75.8949 90.0006C76.0688 90.0759 76.2181 90.1787 76.3428 90.3079L76.1748 90.5456Z" fill="#383838"/>
<path d="M77.8485 89.9409L77.3918 93.72H76.7367L77.1934 89.9409H77.8485ZM78.0999 88.7539C78.0999 88.8185 78.0862 88.8792 78.0606 88.935C78.0341 88.9907 77.9997 89.0406 77.9556 89.0837C77.9123 89.1277 77.8622 89.162 77.8072 89.1864C77.7522 89.2119 77.6953 89.2236 77.6354 89.2236C77.5784 89.2236 77.5214 89.2119 77.4674 89.1864C77.4124 89.162 77.3643 89.1277 77.323 89.0837C77.2818 89.0406 77.2484 88.9907 77.2238 88.935C77.1983 88.8792 77.1865 88.8185 77.1865 88.7539C77.1865 88.6893 77.1993 88.6287 77.2238 88.5709C77.2484 88.5142 77.2828 88.4633 77.325 88.4202C77.3672 88.3772 77.4163 88.342 77.4713 88.3155C77.5263 88.2891 77.5823 88.2764 77.6393 88.2764C77.6992 88.2764 77.7562 88.2891 77.8112 88.3136C77.8662 88.339 77.9153 88.3723 77.9595 88.4163C78.0037 88.4604 78.0381 88.5113 78.0626 88.569C78.0872 88.6277 78.0999 88.6893 78.0999 88.7539Z" fill="#383838"/>
<path d="M79.8227 93.7719C79.6154 93.7719 79.4259 93.7367 79.253 93.6662C79.0811 93.5948 78.9318 93.493 78.8071 93.358C78.6823 93.2239 78.5851 93.0595 78.5144 92.8658C78.4447 92.672 78.4093 92.4499 78.4093 92.2014C78.4093 91.8833 78.4594 91.5829 78.5586 91.3021C78.6588 91.0212 78.7953 90.7746 78.9682 90.5633C79.141 90.3519 79.3463 90.1856 79.582 90.0632C79.8177 89.9419 80.0731 89.8802 80.3481 89.8802C80.5554 89.8802 80.7449 89.9155 80.9168 89.9859C81.0897 90.0574 81.238 90.1591 81.3627 90.2942C81.4875 90.4292 81.5847 90.5936 81.6544 90.7883C81.7242 90.9831 81.7595 91.2042 81.7595 91.4508C81.7595 91.7669 81.7094 92.0653 81.6102 92.3462C81.511 92.627 81.3735 92.8736 81.2007 93.085C81.0268 93.2963 80.8215 93.4637 80.5848 93.587C80.3491 93.7112 80.0937 93.7719 79.8227 93.7719ZM79.8816 93.2543C80.0643 93.2543 80.2303 93.2044 80.3796 93.1055C80.5288 93.0067 80.6565 92.8736 80.7616 92.7082C80.8667 92.5429 80.9473 92.352 81.0052 92.1358C81.0622 91.9195 81.0916 91.6935 81.0916 91.4567C81.0916 91.1083 81.0229 90.8461 80.8854 90.6699C80.7479 90.4938 80.5495 90.4047 80.2902 90.4047C80.1055 90.4047 79.9386 90.4537 79.7902 90.5525C79.6419 90.6504 79.5152 90.7825 79.4101 90.9478C79.305 91.1132 79.2245 91.304 79.1666 91.5203C79.1086 91.7365 79.0801 91.9626 79.0801 92.1994C79.0801 92.5478 79.1479 92.811 79.2844 92.9881C79.4209 93.1652 79.6203 93.2543 79.8816 93.2543Z" fill="#383838"/>
<path d="M82.2339 93.7201L82.6867 89.937H83.0197C83.169 89.937 83.2446 90.0114 83.2446 90.1611L83.1886 90.8921C83.3909 90.5584 83.6188 90.3079 83.8722 90.1386C84.1256 89.9693 84.3888 89.8851 84.6609 89.8851C84.9428 89.8851 85.1618 89.9791 85.318 90.1689C85.4741 90.3578 85.5517 90.6337 85.5517 90.9968C85.5517 91.0467 85.5507 91.0976 85.5478 91.1504C85.5458 91.2023 85.5399 91.257 85.5331 91.3148L85.2482 93.721H84.5813L84.8662 91.3148C84.8711 91.2649 84.876 91.2169 84.8789 91.1709C84.8829 91.1249 84.8848 91.0809 84.8848 91.0388C84.8848 90.8353 84.8465 90.6836 84.7709 90.5858C84.6953 90.4879 84.5754 90.438 84.4134 90.438C84.2935 90.438 84.1718 90.4703 84.048 90.5349C83.9242 90.5995 83.8054 90.6915 83.6905 90.8089C83.5756 90.9273 83.4685 91.0702 83.3703 91.2375C83.2711 91.4058 83.1876 91.5927 83.1179 91.7992L82.9008 93.721H82.2339V93.7201Z" fill="#383838"/>
<path d="M88.9628 93.7201H88.6181C88.5307 93.7201 88.4717 93.6976 88.4403 93.6525C88.4089 93.6075 88.3931 93.5527 88.3931 93.4882L88.4599 92.7308C88.3696 92.8893 88.2733 93.0321 88.1702 93.1603C88.0671 93.2885 87.9571 93.3981 87.8402 93.4882C87.7243 93.5782 87.6025 93.6476 87.4748 93.6976C87.3471 93.7465 87.2155 93.7719 87.078 93.7719C86.9287 93.7719 86.7922 93.7426 86.6694 93.6848C86.5476 93.6261 86.4425 93.54 86.3571 93.4275C86.2707 93.314 86.2039 93.175 86.1567 93.0096C86.1096 92.8443 86.085 92.6544 86.085 92.4411C86.085 92.217 86.1135 91.9988 86.1695 91.7865C86.2255 91.5741 86.306 91.3725 86.4091 91.1837C86.5123 90.9948 86.637 90.8216 86.7814 90.6631C86.9258 90.5056 87.0878 90.3686 87.2666 90.2531C87.4453 90.1376 87.6369 90.0476 87.8412 89.984C88.0455 89.9204 88.2605 89.8891 88.4855 89.8891C88.6475 89.8891 88.8057 89.9018 88.9589 89.9282C89.1121 89.9546 89.2643 90.0006 89.4136 90.0662L88.9628 93.7201ZM87.3304 93.22C87.4522 93.22 87.573 93.1829 87.6899 93.1085C87.8068 93.0341 87.9188 92.9304 88.0229 92.7983C88.127 92.6662 88.2252 92.5086 88.3165 92.3266C88.4079 92.1446 88.4884 91.944 88.5581 91.7258L88.7192 90.4478C88.6642 90.4038 88.6102 90.3813 88.5562 90.3813C88.5022 90.3813 88.4491 90.3813 88.3971 90.3813C88.2468 90.3813 88.1024 90.4057 87.9629 90.4537C87.8235 90.5016 87.6919 90.5692 87.5701 90.6562C87.4483 90.7433 87.3363 90.8471 87.2371 90.9674C87.1369 91.0878 87.0515 91.2199 86.9808 91.3637C86.9101 91.5076 86.8541 91.6612 86.8138 91.8237C86.7735 91.9861 86.7539 92.1524 86.7539 92.3237C86.7539 92.9216 86.9464 93.22 87.3304 93.22Z" fill="#383838"/>
<path d="M90.0197 93.7201L90.6895 88.2245H91.3446L90.6748 93.7201H90.0197Z" fill="#383838"/>
<path d="M35.5765 0C15.928 0 0 15.8691 0 35.4448C0 55.0206 15.928 70.8896 35.5765 70.8896C55.225 70.8896 71.153 55.0206 71.153 35.4448C71.153 15.8691 55.225 0 35.5765 0ZM30.3356 51.947H28.0884L31.9758 20.2705H34.2231L30.3356 51.947ZM50.0627 30.3672L49.8377 31.9338H43.6137L41.2319 51.4773L40.288 56.6264C40.2281 56.9542 40.1004 57.19 39.9059 57.3319C39.7115 57.4738 39.4708 57.5443 39.187 57.5443H38.4003L41.5462 31.9563L38.7155 31.7772C38.3855 31.7479 38.2215 31.5835 38.2215 31.285C38.2215 31.2704 38.2254 31.2214 38.2333 31.1392C38.2402 31.057 38.2667 30.7997 38.3119 30.3672H41.7269L42.0864 27.546C42.2357 26.2778 42.5284 25.1623 42.9625 24.1994C43.3966 23.2365 43.9397 22.4351 44.5919 21.7932C45.2431 21.1512 45.9807 20.6708 46.8048 20.3488C47.6288 20.0279 48.5128 19.8674 49.4566 19.8674C49.876 19.8674 50.2954 19.9085 50.7148 19.9907C51.1342 20.0729 51.5084 20.1883 51.8384 20.3381L51.6135 21.4125C51.5988 21.5769 51.4858 21.6591 51.2766 21.6591C51.1116 21.6591 50.8798 21.6297 50.5803 21.57C50.2807 21.5104 49.936 21.48 49.547 21.48C48.8732 21.48 48.2329 21.5916 47.6259 21.8157C47.0189 22.0397 46.4797 22.394 46.0082 22.8793C45.5368 23.3647 45.1321 23.9949 44.7952 24.7709C44.4583 25.5469 44.2226 26.4951 44.0871 27.6135L43.7276 30.3672H50.0627ZM65.1509 29.8182C65.9072 30.1245 66.522 30.5051 66.9935 30.9602C67.4659 31.4152 67.8057 31.9084 68.0159 32.4378C68.2251 32.9681 68.3302 33.4643 68.3302 33.9261C68.3302 34.5377 68.2477 35.1199 68.0827 35.6718C67.9177 36.2237 67.625 36.7463 67.2066 37.2385C66.7872 37.7307 66.2175 38.1975 65.4986 38.6378C64.7796 39.0782 63.8583 39.4813 62.7347 39.8463C61.6111 40.2123 60.2704 40.5401 58.7127 40.8317C57.155 41.1223 55.3271 41.3807 53.2302 41.6038C53.1997 41.9169 53.1771 42.2271 53.1624 42.5324C53.1477 42.8387 53.1398 43.1411 53.1398 43.4386C53.1398 45.6628 53.6456 47.4007 54.6563 48.6542C55.667 49.9077 57.1913 50.535 59.2293 50.535C60.0229 50.535 60.738 50.4488 61.3754 50.2776C62.0118 50.1063 62.5805 49.8862 63.0834 49.6171C63.5853 49.348 64.0273 49.0652 64.4093 48.7667C64.7914 48.4683 65.1312 48.1845 65.4318 47.9164C65.7314 47.6473 65.9897 47.4281 66.2067 47.2559C66.4238 47.0846 66.6222 46.9985 66.8019 46.9985C66.9817 46.9985 67.1388 47.0729 67.2734 47.2226L67.7674 47.8048C67.0337 48.5808 66.3187 49.2491 65.6214 49.8089C64.925 50.3686 64.2208 50.8275 63.5097 51.1857C62.7976 51.5438 62.06 51.809 61.2958 51.9803C60.5317 52.1515 59.7155 52.2376 58.8463 52.2376C57.6028 52.2376 56.4979 52.0321 55.5324 51.6221C54.5659 51.2121 53.7537 50.6299 53.0946 49.8764C52.4356 49.1229 51.9337 48.205 51.589 47.1228C51.2442 46.0405 51.0723 44.8281 51.0723 43.4845C51.0723 42.3651 51.1843 41.2388 51.4092 40.1037C51.6341 38.9695 51.9671 37.8804 52.4091 36.8353C52.8511 35.7912 53.3981 34.8127 54.0493 33.9026C54.7005 32.9926 55.446 32.201 56.2848 31.5297C57.1235 30.8584 58.0527 30.328 59.0712 29.9405C60.0897 29.553 61.1907 29.3583 62.3743 29.3583C63.4694 29.3593 64.3946 29.5129 65.1509 29.8182Z" fill="#29A0D7"/>
<path d="M56.4557 33.7138C55.7141 34.5573 55.0924 35.5348 54.5905 36.6465C54.0886 37.7581 53.7173 38.9187 53.4787 40.1272C55.3811 39.9187 57.0214 39.676 58.3994 39.3991C59.7774 39.1232 60.9462 38.8325 61.9048 38.5263C62.8634 38.221 63.6383 37.8882 64.2306 37.5301C64.8219 37.172 65.2825 36.8021 65.6125 36.4214C65.9415 36.0408 66.1625 35.6493 66.2755 35.2462C66.3874 34.843 66.4444 34.4252 66.4444 33.9927C66.4444 33.6795 66.3727 33.34 66.2313 32.974C66.0889 32.609 65.8531 32.2763 65.5231 31.9778C65.1931 31.6794 64.7629 31.4289 64.2316 31.2283C63.7002 31.0277 63.0441 30.9259 62.2652 30.9259C61.066 30.9259 59.9846 31.1803 59.0182 31.6872C58.0507 32.1951 57.1972 32.8713 56.4557 33.7138Z" fill="#29A0D7"/>
<path d="M87.1036 30.9601C86.6321 30.5051 86.0173 30.1245 85.261 29.8182C84.5047 29.5129 83.5795 29.3593 82.4864 29.3593C81.3028 29.3593 80.2018 29.553 79.1833 29.9415C78.1648 30.33 77.2356 30.8594 76.3968 31.5306C75.5581 32.2019 74.8126 32.9936 74.1614 33.9036C73.5102 34.8137 72.9631 35.7922 72.5212 36.8363C72.0792 37.8814 71.7462 38.9705 71.5213 40.1046C71.2964 41.2388 71.1844 42.3661 71.1844 43.4855C71.1844 44.8291 71.3563 46.0415 71.701 47.1237C72.0458 48.206 72.5477 49.1239 73.2067 49.8774C73.8658 50.6308 74.679 51.2131 75.6445 51.6231C76.611 52.0331 77.7149 52.2386 78.9584 52.2386C79.8266 52.2386 80.6438 52.1525 81.4079 51.9812C82.1721 51.81 82.9097 51.5448 83.6218 51.1867C84.3329 50.8285 85.0371 50.3696 85.7334 49.8098C86.4298 49.2501 87.1448 48.5828 87.8795 47.8058L87.3855 47.2236C87.2509 47.0748 87.0938 46.9995 86.914 46.9995C86.7343 46.9995 86.5359 47.0856 86.3188 47.2568C86.1018 47.4281 85.8434 47.6482 85.5439 47.9173C85.2443 48.1864 84.9035 48.4702 84.5214 48.7677C84.1394 49.0662 83.6974 49.3499 83.1955 49.618C82.6936 49.8871 82.1239 50.1073 81.4875 50.2786C80.851 50.4508 80.135 50.5359 79.3414 50.5359C77.3044 50.5359 75.78 49.9087 74.7694 48.6552C73.7587 47.4016 73.2529 45.6628 73.2529 43.4395C73.2529 43.1411 73.2598 42.8387 73.2755 42.5334C73.2902 42.2281 73.3128 41.9179 73.3432 41.6048C75.4402 41.3807 77.268 41.1233 78.8258 40.8327C80.3835 40.5411 81.7242 40.2133 82.8478 39.8473C83.9714 39.4813 84.8927 39.0791 85.6116 38.6388C86.3306 38.1984 86.9003 37.7327 87.3197 37.2395C87.739 36.7473 88.0308 36.2247 88.1958 35.6728C88.3598 35.1209 88.4433 34.5387 88.4433 33.9271C88.4433 33.4642 88.3382 32.9681 88.129 32.4387C87.9158 31.9084 87.575 31.4162 87.1036 30.9601ZM86.3846 35.2472C86.2727 35.6503 86.0517 36.0417 85.7217 36.4224C85.3916 36.803 84.931 37.1719 84.3397 37.5311C83.7475 37.8892 82.9725 38.2219 82.0139 38.5272C81.0553 38.8335 79.8865 39.1241 78.5085 39.4001C77.1305 39.676 75.4903 39.9187 73.5878 40.1281C73.8275 38.9196 74.1977 37.7591 74.6996 36.6474C75.2015 35.5358 75.8232 34.5583 76.5648 33.7148C77.3063 32.8722 78.1599 32.1961 79.1263 31.6892C80.0928 31.1823 81.1742 30.9279 82.3734 30.9279C83.1523 30.9279 83.8074 31.0286 84.3397 31.2302C84.8721 31.4318 85.3023 31.6813 85.6313 31.9798C85.9603 32.2782 86.197 32.611 86.3394 32.976C86.4819 33.3419 86.5526 33.6815 86.5526 33.9946C86.5536 34.4271 86.4966 34.844 86.3846 35.2472Z" fill="#383838"/>
<path d="M110.618 33.9486C110.363 32.9789 109.988 32.154 109.494 31.4749C109 30.7958 108.385 30.2693 107.652 29.8965C106.918 29.5237 106.065 29.3368 105.09 29.3368C104.177 29.3368 103.278 29.5305 102.394 29.919C101.51 30.3075 100.661 30.8555 99.8434 31.5649C99.0272 32.2743 98.2553 33.1247 97.5294 34.1169C96.8026 35.1092 96.1475 36.2101 95.5631 37.4186L96.282 30.4112C96.282 29.874 96.0198 29.6049 95.4953 29.6049H94.5289L90.8437 59.8262H92.9112L94.2371 49.0583C94.8815 50.1034 95.7163 50.8941 96.7427 51.4313C97.7691 51.9685 98.8888 52.2366 100.102 52.2366C101.18 52.2366 102.203 52.0243 103.169 51.5986C104.136 51.173 105.022 50.5956 105.832 49.8637C106.641 49.1327 107.363 48.2745 108 47.2891C108.637 46.3037 109.176 45.2557 109.618 44.1441C110.06 43.0325 110.401 41.8837 110.641 40.6967C110.88 39.5107 111 38.3423 111 37.1935C111 36.0006 110.872 34.9194 110.618 33.9486ZM108.606 40.3845C108.419 41.4071 108.15 42.4033 107.798 43.373C107.445 44.3437 107.011 45.2645 106.495 46.1374C105.978 47.0102 105.386 47.7755 104.72 48.4321C104.053 49.0887 103.312 49.6073 102.495 49.988C101.678 50.3686 100.799 50.5584 99.8552 50.5584C98.822 50.5584 97.825 50.3197 96.8664 49.8422C95.9078 49.3646 95.0985 48.5368 94.4395 47.3576L95.2262 40.955C95.7654 39.4627 96.3871 38.1084 97.0914 36.8921C97.7956 35.6758 98.544 34.6346 99.3386 33.7696C100.132 32.9045 100.96 32.2362 101.822 31.7655C102.683 31.2958 103.54 31.06 104.395 31.06C105.862 31.06 106.979 31.6158 107.743 32.7274C108.507 33.839 108.889 35.3949 108.889 37.3951C108.887 38.3668 108.794 39.3629 108.606 40.3845Z" fill="#383838"/>
</svg>
