<svg width="34" height="33" viewBox="0 0 34 33" fill="none" xmlns="http://www.w3.org/2000/svg">
<path d="M6.375 4.125C6.375 3.03098 6.82277 1.98177 7.6198 1.20818C8.41683 0.434597 9.49783 0 10.625 0L23.375 0C24.5022 0 25.5832 0.434597 26.3802 1.20818C27.1772 1.98177 27.625 3.03098 27.625 4.125V28.875C27.625 29.969 27.1772 31.0182 26.3802 31.7918C25.5832 32.5654 24.5022 33 23.375 33H10.625C9.49783 33 8.41683 32.5654 7.6198 31.7918C6.82277 31.0182 6.375 29.969 6.375 28.875V4.125ZM19.125 26.8125C19.125 26.2655 18.9011 25.7409 18.5026 25.3541C18.1041 24.9673 17.5636 24.75 17 24.75C16.4364 24.75 15.8959 24.9673 15.4974 25.3541C15.0989 25.7409 14.875 26.2655 14.875 26.8125C14.875 27.3595 15.0989 27.8841 15.4974 28.2709C15.8959 28.6577 16.4364 28.875 17 28.875C17.5636 28.875 18.1041 28.6577 18.5026 28.2709C18.9011 27.8841 19.125 27.3595 19.125 26.8125Z" fill="#004368"/>
</svg>
